<?xml version="1.0" encoding="UTF-8" standalone="no"?>
<!DOCTYPE svg PUBLIC "-//W3C//DTD SVG 1.1//EN"
 "http://www.w3.org/Graphics/SVG/1.1/DTD/svg11.dtd">
<!-- Generated by graphviz version 9.0.0 (20230911.1827)
 -->
<!-- Title: componentsObject Pages: 1 -->
<svg width="958pt" height="354pt"
 viewBox="0.00 0.00 958.25 353.75" xmlns="http://www.w3.org/2000/svg" xmlns:xlink="http://www.w3.org/1999/xlink">
<g id="graph0" class="graph" transform="scale(1 1) rotate(0) translate(4 349.75)">
<title>componentsObject</title>
<polygon fill="white" stroke="none" points="-4,4 -4,-349.75 954.25,-349.75 954.25,4 -4,4"/>
<!-- openapiObject -->
<g id="node1" class="node">
<title>openapiObject</title>
<g id="a_node1"><a xlink:href="https://spec.openapis.org/oas/v3.1.0#oasObject" xlink:title="Click to jump to the specification of this object" target="_blank">
<polygon fill="#94d60a" stroke="none" points="8,-320 8,-341.75 118.25,-341.75 118.25,-320 8,-320"/>
<polygon fill="none" stroke="black" points="8,-320 8,-341.75 118.25,-341.75 118.25,-320 8,-320"/>
<text text-anchor="start" x="11" y="-326.45" font-family="arial" font-weight="bold" font-size="14.00">OpenAPI Object</text>
<polygon fill="#6ca437" stroke="none" points="8,-299 8,-320 118.25,-320 118.25,-299 8,-299"/>
<polygon fill="none" stroke="black" points="8,-299 8,-320 118.25,-320 118.25,-299 8,-299"/>
<text text-anchor="start" x="34.25" y="-303.7" font-family="monospace" font-size="14.00">openapi</text>
<polygon fill="#6ca437" stroke="none" points="8,-278 8,-299 118.25,-299 118.25,-278 8,-278"/>
<polygon fill="none" stroke="black" points="8,-278 8,-299 118.25,-299 118.25,-278 8,-278"/>
<text text-anchor="start" x="46.62" y="-282.7" font-family="monospace" font-size="14.00">info</text>
<polygon fill="#6ca437" stroke="none" points="8,-257 8,-278 118.25,-278 118.25,-257 8,-257"/>
<polygon fill="none" stroke="black" points="8,-257 8,-278 118.25,-278 118.25,-257 8,-257"/>
<text text-anchor="start" x="21.88" y="-261.7" font-family="monospace" font-size="14.00">components</text>
<polygon fill="#6ca437" stroke="none" points="8,-236 8,-257 118.25,-257 118.25,-236 8,-236"/>
<polygon fill="none" stroke="black" points="8,-236 8,-257 118.25,-257 118.25,-236 8,-236"/>
<text text-anchor="start" x="30.12" y="-240.7" font-family="monospace" font-size="14.00">security</text>
<polygon fill="#6ca437" stroke="none" points="8,-215 8,-236 118.25,-236 118.25,-215 8,-215"/>
<polygon fill="none" stroke="black" points="8,-215 8,-236 118.25,-236 118.25,-215 8,-215"/>
<text text-anchor="start" x="42.5" y="-219.7" font-family="monospace" font-size="14.00">paths</text>
<polygon fill="#6ca437" stroke="none" points="8,-194 8,-215 118.25,-215 118.25,-194 8,-194"/>
<polygon fill="none" stroke="black" points="8,-194 8,-215 118.25,-215 118.25,-194 8,-194"/>
<text text-anchor="start" x="59" y="-198.7" font-family="monospace" font-size="14.00">…</text>
</a>
</g>
</g>
<!-- componentsObject -->
<g id="node2" class="node">
<title>componentsObject</title>
<g id="a_node2"><a xlink:href="https://spec.openapis.org/oas/v3.1.0#componentsObject" xlink:title="Click to jump to the specification of this object" target="_blank">
<polygon fill="#94d60a" stroke="none" points="311.5,-261 311.5,-282.75 447.25,-282.75 447.25,-261 311.5,-261"/>
<polygon fill="none" stroke="black" points="311.5,-261 311.5,-282.75 447.25,-282.75 447.25,-261 311.5,-261"/>
<text text-anchor="start" x="314.5" y="-267.45" font-family="arial" font-weight="bold" font-size="14.00">Components Object</text>
<polygon fill="#6ca437" stroke="none" points="311.5,-240 311.5,-261 447.25,-261 447.25,-240 311.5,-240"/>
<polygon fill="none" stroke="black" points="311.5,-240 311.5,-261 447.25,-261 447.25,-240 311.5,-240"/>
<text text-anchor="start" x="342.25" y="-244.7" font-family="monospace" font-size="14.00">callbacks</text>
<polygon fill="#6ca437" stroke="none" points="311.5,-219 311.5,-240 447.25,-240 447.25,-219 311.5,-219"/>
<polygon fill="none" stroke="black" points="311.5,-219 311.5,-240 447.25,-240 447.25,-219 311.5,-219"/>
<text text-anchor="start" x="375.25" y="-223.7" font-family="monospace" font-size="14.00">…</text>
</a>
</g>
</g>
<!-- openapiObject&#45;&gt;componentsObject -->
<g id="edge1" class="edge">
<title>openapiObject:components&#45;&gt;componentsObject:header</title>
<path fill="none" stroke="black" d="M119.12,-267.88C200.32,-267.88 223.32,-271.52 299.29,-271.85"/>
<polygon fill="black" stroke="black" points="298.85,-275.35 308.86,-271.87 298.87,-268.35 298.85,-275.35"/>
</g>
<!-- pathsObject -->
<g id="node3" class="node">
<title>pathsObject</title>
<g id="a_node3"><a xlink:href="https://spec.openapis.org/oas/v3.1.0#pathsObject" xlink:title="Click to jump to the specification of this object" target="_blank">
<polygon fill="#939598" stroke="none" points="170.25,-214 170.25,-235.75 259.5,-235.75 259.5,-214 170.25,-214"/>
<polygon fill="none" stroke="black" points="170.25,-214 170.25,-235.75 259.5,-235.75 259.5,-214 170.25,-214"/>
<text text-anchor="start" x="173.25" y="-220.45" font-family="arial" font-weight="bold" font-size="14.00">Paths Object</text>
<polygon fill="#6d6e71" stroke="none" points="170.25,-193 170.25,-214 259.5,-214 259.5,-193 170.25,-193"/>
<polygon fill="none" stroke="black" points="170.25,-193 170.25,-214 259.5,-214 259.5,-193 170.25,-193"/>
<text text-anchor="start" x="173.62" y="-197.7" font-family="monospace" font-size="14.00">/endpoint1</text>
<polygon fill="#6d6e71" stroke="none" points="170.25,-172 170.25,-193 259.5,-193 259.5,-172 170.25,-172"/>
<polygon fill="none" stroke="black" points="170.25,-172 170.25,-193 259.5,-193 259.5,-172 170.25,-172"/>
<text text-anchor="start" x="173.62" y="-176.7" font-family="monospace" font-size="14.00">/endpoint2</text>
<polygon fill="#6d6e71" stroke="none" points="170.25,-151 170.25,-172 259.5,-172 259.5,-151 170.25,-151"/>
<polygon fill="none" stroke="black" points="170.25,-151 170.25,-172 259.5,-172 259.5,-151 170.25,-151"/>
<text text-anchor="start" x="173.62" y="-155.7" font-family="monospace" font-size="14.00">/endpoint3</text>
<polygon fill="#6d6e71" stroke="none" points="170.25,-130 170.25,-151 259.5,-151 259.5,-130 170.25,-130"/>
<polygon fill="none" stroke="black" points="170.25,-130 170.25,-151 259.5,-151 259.5,-130 170.25,-130"/>
<text text-anchor="start" x="210.75" y="-134.7" font-family="monospace" font-size="14.00">…</text>
</a>
</g>
</g>
<!-- openapiObject&#45;&gt;pathsObject -->
<g id="edge3" class="edge">
<title>openapiObject:paths&#45;&gt;pathsObject:header</title>
<path fill="none" stroke="black" d="M119.12,-225.88C136.92,-225.88 143.97,-225.23 157.57,-224.97"/>
<polygon fill="black" stroke="black" points="157.39,-228.48 167.36,-224.89 157.33,-221.48 157.39,-228.48"/>
</g>
<!-- callbackObject -->
<g id="node7" class="node">
<title>callbackObject</title>
<g id="a_node7"><a xlink:href="https://spec.openapis.org/oas/v3.1.0#callbackObject" xlink:title="Click to jump to the specification of this object" target="_blank">
<polygon fill="#94d60a" stroke="none" points="668.25,-151 668.25,-172.75 776.25,-172.75 776.25,-151 668.25,-151"/>
<polygon fill="none" stroke="black" points="668.25,-151 668.25,-172.75 776.25,-172.75 776.25,-151 668.25,-151"/>
<text text-anchor="start" x="671.25" y="-157.45" font-family="arial" font-weight="bold" font-size="14.00">Callback Object</text>
<polygon fill="#6ca437" stroke="none" points="668.25,-130 668.25,-151 776.25,-151 776.25,-130 668.25,-130"/>
<polygon fill="none" stroke="black" points="668.25,-130 668.25,-151 776.25,-151 776.25,-130 668.25,-130"/>
<text text-anchor="start" x="672.75" y="-134.7" font-family="monospace" font-size="14.00">{expression}</text>
<polygon fill="#6ca437" stroke="none" points="668.25,-109 668.25,-130 776.25,-130 776.25,-109 668.25,-109"/>
<polygon fill="none" stroke="black" points="668.25,-109 668.25,-130 776.25,-130 776.25,-109 668.25,-109"/>
<text text-anchor="start" x="718.12" y="-113.7" font-family="monospace" font-size="14.00">…</text>
</a>
</g>
</g>
<!-- componentsObject&#45;&gt;callbackObject -->
<g id="edge2" class="edge">
<title>componentsObject:callbacks&#45;&gt;callbackObject:header</title>
<path fill="none" stroke="black" d="M448.38,-250.88C549.49,-250.88 561.45,-168.36 655.95,-162.23"/>
<polygon fill="black" stroke="black" points="655.85,-165.74 665.74,-161.92 655.63,-158.74 655.85,-165.74"/>
</g>
<!-- pathItemObject -->
<g id="node4" class="node">
<title>pathItemObject</title>
<g id="a_node4"><a xlink:href="https://spec.openapis.org/oas/v3.1.0#pathItemObject" xlink:title="Click to jump to the specification of this object" target="_blank">
<polygon fill="#939598" stroke="none" points="322.38,-171 322.38,-192.75 436.38,-192.75 436.38,-171 322.38,-171"/>
<polygon fill="none" stroke="black" points="322.38,-171 322.38,-192.75 436.38,-192.75 436.38,-171 322.38,-171"/>
<text text-anchor="start" x="325.38" y="-177.45" font-family="arial" font-weight="bold" font-size="14.00">Path Item Object</text>
<polygon fill="#6d6e71" stroke="none" points="322.38,-150 322.38,-171 436.38,-171 436.38,-150 322.38,-150"/>
<polygon fill="none" stroke="black" points="322.38,-150 322.38,-171 436.38,-171 436.38,-150 322.38,-150"/>
<text text-anchor="start" x="354.62" y="-154.7" font-family="monospace" font-size="14.00">delete</text>
<polygon fill="#6d6e71" stroke="none" points="322.38,-129 322.38,-150 436.38,-150 436.38,-129 322.38,-129"/>
<polygon fill="none" stroke="black" points="322.38,-129 322.38,-150 436.38,-150 436.38,-129 322.38,-129"/>
<text text-anchor="start" x="367" y="-133.7" font-family="monospace" font-size="14.00">get</text>
<polygon fill="#6d6e71" stroke="none" points="322.38,-108 322.38,-129 436.38,-129 436.38,-108 322.38,-108"/>
<polygon fill="none" stroke="black" points="322.38,-108 322.38,-129 436.38,-129 436.38,-108 322.38,-108"/>
<text text-anchor="start" x="358.75" y="-112.7" font-family="monospace" font-size="14.00">patch</text>
<polygon fill="#6d6e71" stroke="none" points="322.38,-87 322.38,-108 436.38,-108 436.38,-87 322.38,-87"/>
<polygon fill="none" stroke="black" points="322.38,-87 322.38,-108 436.38,-108 436.38,-87 322.38,-87"/>
<text text-anchor="start" x="362.88" y="-91.7" font-family="monospace" font-size="14.00">post</text>
<polygon fill="#6d6e71" stroke="none" points="322.38,-66 322.38,-87 436.38,-87 436.38,-66 322.38,-66"/>
<polygon fill="none" stroke="black" points="322.38,-66 322.38,-87 436.38,-87 436.38,-66 322.38,-66"/>
<text text-anchor="start" x="367" y="-70.7" font-family="monospace" font-size="14.00">put</text>
<polygon fill="#6d6e71" stroke="none" points="322.38,-45 322.38,-66 436.38,-66 436.38,-45 322.38,-45"/>
<polygon fill="none" stroke="black" points="322.38,-45 322.38,-66 436.38,-66 436.38,-45 322.38,-45"/>
<text text-anchor="start" x="375.25" y="-49.7" font-family="monospace" font-size="14.00">…</text>
</a>
</g>
</g>
<!-- pathsObject&#45;&gt;pathItemObject -->
<g id="edge4" class="edge">
<title>pathsObject:endpoint1&#45;&gt;pathItemObject:header</title>
<path fill="none" stroke="black" d="M260.88,-203.88C285.24,-203.88 291.23,-187.92 310.14,-183.19"/>
<polygon fill="black" stroke="black" points="310.34,-186.69 319.87,-182.05 309.53,-179.73 310.34,-186.69"/>
</g>
<!-- pathsObject&#45;&gt;pathItemObject -->
<g id="edge5" class="edge">
<title>pathsObject:endpoint2&#45;&gt;pathItemObject:header</title>
<path fill="none" stroke="black" d="M260.88,-182.88C283.57,-182.88 291.89,-182.16 310.09,-181.94"/>
<polygon fill="black" stroke="black" points="309.88,-185.44 319.86,-181.88 309.84,-178.44 309.88,-185.44"/>
</g>
<!-- pathsObject&#45;&gt;pathItemObject -->
<g id="edge6" class="edge">
<title>pathsObject:endpoint3&#45;&gt;pathItemObject:header</title>
<path fill="none" stroke="black" d="M260.88,-161.88C284.88,-161.88 291.31,-176.25 309.96,-180.62"/>
<polygon fill="black" stroke="black" points="309.55,-184.1 319.87,-181.71 310.31,-177.14 309.55,-184.1"/>
</g>
<!-- operationObject -->
<g id="node5" class="node">
<title>operationObject</title>
<g id="a_node5"><a xlink:href="https://spec.openapis.org/oas/v3.1.0#operationObject" xlink:title="Click to jump to the specification of this object" target="_blank">
<polygon fill="#94d60a" stroke="none" points="499.25,-118 499.25,-139.75 616.25,-139.75 616.25,-118 499.25,-118"/>
<polygon fill="none" stroke="black" points="499.25,-118 499.25,-139.75 616.25,-139.75 616.25,-118 499.25,-118"/>
<text text-anchor="start" x="502.25" y="-124.45" font-family="arial" font-weight="bold" font-size="14.00">Operation Object</text>
<polygon fill="#6ca437" stroke="none" points="499.25,-97 499.25,-118 616.25,-118 616.25,-97 499.25,-97"/>
<polygon fill="none" stroke="black" points="499.25,-97 499.25,-118 616.25,-118 616.25,-97 499.25,-97"/>
<text text-anchor="start" x="520.62" y="-101.7" font-family="monospace" font-size="14.00">callbacks</text>
<polygon fill="#6ca437" stroke="none" points="499.25,-76 499.25,-97 616.25,-97 616.25,-76 499.25,-76"/>
<polygon fill="none" stroke="black" points="499.25,-76 499.25,-97 616.25,-97 616.25,-76 499.25,-76"/>
<text text-anchor="start" x="553.62" y="-80.7" font-family="monospace" font-size="14.00">…</text>
</a>
</g>
</g>
<!-- pathItemObject&#45;&gt;operationObject -->
<g id="edge7" class="edge">
<title>pathItemObject:delete&#45;&gt;operationObject:header</title>
<path fill="none" stroke="black" d="M437.38,-160.88C463.47,-160.88 466.88,-137.24 486.59,-130.6"/>
<polygon fill="black" stroke="black" points="486.9,-134.09 496.25,-129.11 485.84,-127.17 486.9,-134.09"/>
</g>
<!-- pathItemObject&#45;&gt;operationObject -->
<g id="edge8" class="edge">
<title>pathItemObject:get&#45;&gt;operationObject:header</title>
<path fill="none" stroke="black" d="M437.38,-139.88C460.39,-139.88 468.13,-132.04 486.37,-129.6"/>
<polygon fill="black" stroke="black" points="486.48,-133.1 496.24,-128.97 486.04,-126.11 486.48,-133.1"/>
</g>
<!-- pathItemObject&#45;&gt;operationObject -->
<g id="edge9" class="edge">
<title>pathItemObject:patch&#45;&gt;operationObject:header</title>
<path fill="none" stroke="black" d="M437.38,-118.88C460.32,-118.88 468.17,-125.99 486.39,-128.22"/>
<polygon fill="black" stroke="black" points="486.05,-131.71 496.24,-128.79 486.46,-124.72 486.05,-131.71"/>
</g>
<!-- pathItemObject&#45;&gt;operationObject -->
<g id="edge10" class="edge">
<title>pathItemObject:post&#45;&gt;operationObject:header</title>
<path fill="none" stroke="black" d="M437.38,-97.88C463.18,-97.88 466.94,-120.56 486.38,-127.12"/>
<polygon fill="black" stroke="black" points="485.84,-130.58 496.25,-128.64 486.91,-123.66 485.84,-130.58"/>
</g>
<!-- pathItemObject&#45;&gt;operationObject -->
<g id="edge11" class="edge">
<title>pathItemObject:put&#45;&gt;operationObject:header</title>
<path fill="none" stroke="black" d="M437.38,-76.88C468.5,-76.88 464.2,-117.04 486.74,-126.77"/>
<polygon fill="black" stroke="black" points="485.78,-130.15 496.26,-128.59 487.1,-123.28 485.78,-130.15"/>
</g>
<!-- operationObject&#45;&gt;callbackObject -->
<g id="edge12" class="edge">
<title>operationObject:callbacks&#45;&gt;callbackObject:header</title>
<path fill="none" stroke="black" d="M617.75,-107.88C645.98,-107.88 637.99,-148.48 656.6,-159.27"/>
<polygon fill="black" stroke="black" points="655.23,-162.54 665.78,-161.52 656.9,-155.74 655.23,-162.54"/>
</g>
<!-- callbackPathItemObject -->
<g id="node6" class="node">
<title>callbackPathItemObject</title>
<g id="a_node6"><a xlink:href="https://spec.openapis.org/oas/v3.1.0#pathItemObject" xlink:title="Click to jump to the specification of this object" target="_blank">
<polygon fill="#94d60a" stroke="none" points="828.25,-130 828.25,-151.75 942.25,-151.75 942.25,-130 828.25,-130"/>
<polygon fill="none" stroke="black" points="828.25,-130 828.25,-151.75 942.25,-151.75 942.25,-130 828.25,-130"/>
<text text-anchor="start" x="831.25" y="-136.45" font-family="arial" font-weight="bold" font-size="14.00">Path Item Object</text>
<polygon fill="#6ca437" stroke="none" points="828.25,-109 828.25,-130 942.25,-130 942.25,-109 828.25,-109"/>
<polygon fill="none" stroke="black" points="828.25,-109 828.25,-130 942.25,-130 942.25,-109 828.25,-109"/>
<text text-anchor="start" x="860.5" y="-113.7" font-family="monospace" font-size="14.00">delete</text>
<polygon fill="#6ca437" stroke="none" points="828.25,-88 828.25,-109 942.25,-109 942.25,-88 828.25,-88"/>
<polygon fill="none" stroke="black" points="828.25,-88 828.25,-109 942.25,-109 942.25,-88 828.25,-88"/>
<text text-anchor="start" x="872.88" y="-92.7" font-family="monospace" font-size="14.00">get</text>
<polygon fill="#6ca437" stroke="none" points="828.25,-67 828.25,-88 942.25,-88 942.25,-67 828.25,-67"/>
<polygon fill="none" stroke="black" points="828.25,-67 828.25,-88 942.25,-88 942.25,-67 828.25,-67"/>
<text text-anchor="start" x="864.62" y="-71.7" font-family="monospace" font-size="14.00">patch</text>
<polygon fill="#6ca437" stroke="none" points="828.25,-46 828.25,-67 942.25,-67 942.25,-46 828.25,-46"/>
<polygon fill="none" stroke="black" points="828.25,-46 828.25,-67 942.25,-67 942.25,-46 828.25,-46"/>
<text text-anchor="start" x="868.75" y="-50.7" font-family="monospace" font-size="14.00">post</text>
<polygon fill="#6ca437" stroke="none" points="828.25,-25 828.25,-46 942.25,-46 942.25,-25 828.25,-25"/>
<polygon fill="none" stroke="black" points="828.25,-25 828.25,-46 942.25,-46 942.25,-25 828.25,-25"/>
<text text-anchor="start" x="872.88" y="-29.7" font-family="monospace" font-size="14.00">put</text>
<polygon fill="#6ca437" stroke="none" points="828.25,-4 828.25,-25 942.25,-25 942.25,-4 828.25,-4"/>
<polygon fill="none" stroke="black" points="828.25,-4 828.25,-25 942.25,-25 942.25,-4 828.25,-4"/>
<text text-anchor="start" x="881.12" y="-8.7" font-family="monospace" font-size="14.00">…</text>
</a>
</g>
</g>
<!-- callbackObject&#45;&gt;callbackPathItemObject -->
<g id="edge13" class="edge">
<title>callbackObject:expression&#45;&gt;callbackPathItemObject:header</title>
<path fill="none" stroke="black" d="M777.25,-140.88C795.13,-140.88 802.22,-140.88 815.89,-140.88"/>
<polygon fill="black" stroke="black" points="815.74,-144.38 825.74,-140.88 815.74,-137.38 815.74,-144.38"/>
</g>
</g>
</svg>
