<?xml version="1.0" encoding="UTF-8" standalone="no"?>
<!DOCTYPE svg PUBLIC "-//W3C//DTD SVG 1.1//EN"
 "http://www.w3.org/Graphics/SVG/1.1/DTD/svg11.dtd">
<!-- Generated by graphviz version 2.44.1 (20200629.0800)
 -->
<!-- Title: contentField Pages: 1 -->
<svg width="892pt" height="313pt"
 viewBox="0.00 0.00 891.60 312.50" xmlns="http://www.w3.org/2000/svg" xmlns:xlink="http://www.w3.org/1999/xlink">
<g id="graph0" class="graph" transform="scale(1 1) rotate(0) translate(4 308.5)">
<title>contentField</title>
<polygon fill="white" stroke="transparent" points="-4,4 -4,-308.5 887.6,-308.5 887.6,4 -4,4"/>
<!-- responseObject -->
<g id="node1" class="node">
<title>responseObject</title>
<g id="a_node1"><a xlink:href="https://spec.openapis.org/oas/v3.1.0#responseObject" xlink:title="Click to jump to the specification of this object" target="_blank">
<polygon fill="#939598" stroke="transparent" points="22.5,-279.5 22.5,-300.5 147.5,-300.5 147.5,-279.5 22.5,-279.5"/>
<polygon fill="none" stroke="black" points="22.5,-279.5 22.5,-300.5 147.5,-300.5 147.5,-279.5 22.5,-279.5"/>
<text text-anchor="start" x="25.5" y="-287.3" font-family="arial" font-weight="bold" font-size="14.00">Response Object</text>
<polygon fill="#6d6e71" stroke="transparent" points="22.5,-258.5 22.5,-279.5 147.5,-279.5 147.5,-258.5 22.5,-258.5"/>
<polygon fill="none" stroke="black" points="22.5,-258.5 22.5,-279.5 147.5,-279.5 147.5,-258.5 22.5,-258.5"/>
<text text-anchor="start" x="39.5" y="-265.3" font-family="monospace" font-size="14.00">description</text>
<polygon fill="#6d6e71" stroke="transparent" points="22.5,-237.5 22.5,-258.5 147.5,-258.5 147.5,-237.5 22.5,-237.5"/>
<polygon fill="none" stroke="black" points="22.5,-237.5 22.5,-258.5 147.5,-258.5 147.5,-237.5 22.5,-237.5"/>
<text text-anchor="start" x="56" y="-244.3" font-family="monospace" font-size="14.00">content</text>
<polygon fill="#6d6e71" stroke="transparent" points="22.5,-216.5 22.5,-237.5 147.5,-237.5 147.5,-216.5 22.5,-216.5"/>
<polygon fill="none" stroke="black" points="22.5,-216.5 22.5,-237.5 147.5,-237.5 147.5,-216.5 22.5,-216.5"/>
<text text-anchor="start" x="80.5" y="-223.3" font-family="monospace" font-size="14.00">…</text>
</a>
</g>
</g>
<!-- mediaMap -->
<g id="node3" class="node">
<title>mediaMap</title>
<g id="a_node3"><a xlink:href="https://spec.openapis.org/oas/v3.1.0#responseObject" xlink:title="Click to jump to the specification of this object" target="_blank">
<polygon fill="#94d60a" stroke="transparent" points="213,-236.5 213,-257.5 319,-257.5 319,-236.5 213,-236.5"/>
<polygon fill="none" stroke="black" points="213,-236.5 213,-257.5 319,-257.5 319,-236.5 213,-236.5"/>
<text text-anchor="start" x="228" y="-244.3" font-family="arial" font-weight="bold" font-size="14.00">Media Map</text>
<polygon fill="#6ca437" stroke="transparent" points="213,-215.5 213,-236.5 319,-236.5 319,-215.5 213,-215.5"/>
<polygon fill="none" stroke="black" points="213,-215.5 213,-236.5 319,-236.5 319,-215.5 213,-215.5"/>
<text text-anchor="start" x="216" y="-222.3" font-family="monospace" font-size="14.00">media&#45;type&#45;1</text>
<polygon fill="#6ca437" stroke="transparent" points="213,-194.5 213,-215.5 319,-215.5 319,-194.5 213,-194.5"/>
<polygon fill="none" stroke="black" points="213,-194.5 213,-215.5 319,-215.5 319,-194.5 213,-194.5"/>
<text text-anchor="start" x="216" y="-201.3" font-family="monospace" font-size="14.00">media&#45;type&#45;2</text>
<polygon fill="#6ca437" stroke="transparent" points="213,-173.5 213,-194.5 319,-194.5 319,-173.5 213,-173.5"/>
<polygon fill="none" stroke="black" points="213,-173.5 213,-194.5 319,-194.5 319,-173.5 213,-173.5"/>
<text text-anchor="start" x="216" y="-180.3" font-family="monospace" font-size="14.00">media&#45;type&#45;3</text>
<polygon fill="#6ca437" stroke="transparent" points="213,-152.5 213,-173.5 319,-173.5 319,-152.5 213,-152.5"/>
<polygon fill="none" stroke="black" points="213,-152.5 213,-173.5 319,-173.5 319,-152.5 213,-152.5"/>
<text text-anchor="start" x="261.5" y="-159.3" font-family="monospace" font-size="14.00">…</text>
</a>
</g>
</g>
<!-- responseObject&#45;&gt;mediaMap -->
<g id="edge1" class="edge">
<title>responseObject:content&#45;&gt;mediaMap:header</title>
<path fill="none" stroke="black" d="M148.5,-247.5C172.97,-247.5 181.53,-247.5 201.78,-247.5"/>
<polygon fill="black" stroke="black" points="202,-251 212,-247.5 202,-244 202,-251"/>
</g>
<!-- requestBodyObject -->
<g id="node2" class="node">
<title>requestBodyObject</title>
<g id="a_node2"><a xlink:href="https://spec.openapis.org/oas/v3.1.0#requestBodyObject" xlink:title="Click to jump to the specification of this object" target="_blank">
<polygon fill="#939598" stroke="transparent" points="8.5,-169.5 8.5,-190.5 161.5,-190.5 161.5,-169.5 8.5,-169.5"/>
<polygon fill="none" stroke="black" points="8.5,-169.5 8.5,-190.5 161.5,-190.5 161.5,-169.5 8.5,-169.5"/>
<text text-anchor="start" x="11.5" y="-177.3" font-family="arial" font-weight="bold" font-size="14.00">Request Body Object</text>
<polygon fill="#6d6e71" stroke="transparent" points="8.5,-148.5 8.5,-169.5 161.5,-169.5 161.5,-148.5 8.5,-148.5"/>
<polygon fill="none" stroke="black" points="8.5,-148.5 8.5,-169.5 161.5,-169.5 161.5,-148.5 8.5,-148.5"/>
<text text-anchor="start" x="39.5" y="-155.3" font-family="monospace" font-size="14.00">description</text>
<polygon fill="#6d6e71" stroke="transparent" points="8.5,-127.5 8.5,-148.5 161.5,-148.5 161.5,-127.5 8.5,-127.5"/>
<polygon fill="none" stroke="black" points="8.5,-127.5 8.5,-148.5 161.5,-148.5 161.5,-127.5 8.5,-127.5"/>
<text text-anchor="start" x="56" y="-134.3" font-family="monospace" font-size="14.00">content</text>
<polygon fill="#6d6e71" stroke="transparent" points="8.5,-106.5 8.5,-127.5 161.5,-127.5 161.5,-106.5 8.5,-106.5"/>
<polygon fill="none" stroke="black" points="8.5,-106.5 8.5,-127.5 161.5,-127.5 161.5,-106.5 8.5,-106.5"/>
<text text-anchor="start" x="80.5" y="-113.3" font-family="monospace" font-size="14.00">…</text>
</a>
</g>
</g>
<!-- requestBodyObject&#45;&gt;mediaMap -->
<g id="edge2" class="edge">
<title>requestBodyObject:content&#45;&gt;mediaMap:header</title>
<path fill="none" stroke="black" d="M162.5,-137.5C212.13,-137.5 166.34,-231.78 201.81,-245.77"/>
<polygon fill="black" stroke="black" points="201.56,-249.28 212,-247.5 202.73,-242.38 201.56,-249.28"/>
</g>
<!-- mediaTypeObject -->
<g id="node4" class="node">
<title>mediaTypeObject</title>
<g id="a_node4"><a xlink:href="https://spec.openapis.org/oas/v3.1.0#mediaTypeObject" xlink:title="Click to jump to the specification of this object" target="_blank">
<polygon fill="#94d60a" stroke="transparent" points="371,-215.5 371,-236.5 507,-236.5 507,-215.5 371,-215.5"/>
<polygon fill="none" stroke="black" points="371,-215.5 371,-236.5 507,-236.5 507,-215.5 371,-215.5"/>
<text text-anchor="start" x="374" y="-223.3" font-family="arial" font-weight="bold" font-size="14.00">Media Type Object</text>
<polygon fill="#6ca437" stroke="transparent" points="371,-194.5 371,-215.5 507,-215.5 507,-194.5 371,-194.5"/>
<polygon fill="none" stroke="black" points="371,-194.5 371,-215.5 507,-215.5 507,-194.5 371,-194.5"/>
<text text-anchor="start" x="414" y="-201.3" font-family="monospace" font-size="14.00">schema</text>
<polygon fill="#6ca437" stroke="transparent" points="371,-173.5 371,-194.5 507,-194.5 507,-173.5 371,-173.5"/>
<polygon fill="none" stroke="black" points="371,-173.5 371,-194.5 507,-194.5 507,-173.5 371,-173.5"/>
<text text-anchor="start" x="434.5" y="-180.3" font-family="monospace" font-size="14.00">…</text>
</a>
</g>
</g>
<!-- mediaMap&#45;&gt;mediaTypeObject -->
<g id="edge3" class="edge">
<title>mediaMap:media1&#45;&gt;mediaTypeObject:header</title>
<path fill="none" stroke="black" d="M320,-226.5C338.4,-226.5 345.38,-226.5 359.85,-226.5"/>
<polygon fill="black" stroke="black" points="360,-230 370,-226.5 360,-223 360,-230"/>
</g>
<!-- mediaMap&#45;&gt;mediaTypeObject -->
<g id="edge4" class="edge">
<title>mediaMap:media2&#45;&gt;mediaTypeObject:header</title>
<path fill="none" stroke="black" d="M320,-204.5C340.3,-204.5 344.63,-219.87 359.69,-224.92"/>
<polygon fill="black" stroke="black" points="359.58,-228.44 370,-226.5 360.65,-221.52 359.58,-228.44"/>
</g>
<!-- mediaMap&#45;&gt;mediaTypeObject -->
<g id="edge5" class="edge">
<title>mediaMap:media3&#45;&gt;mediaTypeObject:header</title>
<path fill="none" stroke="black" d="M320,-183.5C345.42,-183.5 342.31,-215.84 360.15,-224.43"/>
<polygon fill="black" stroke="black" points="359.49,-227.86 370,-226.5 360.94,-221.01 359.49,-227.86"/>
</g>
<!-- schemaObject -->
<g id="node5" class="node">
<title>schemaObject</title>
<g id="a_node5"><a xlink:href="https://spec.openapis.org/oas/v3.1.0#schemaObject" xlink:title="Click to jump to the specification of this object" target="_blank">
<polygon fill="#94d60a" stroke="transparent" points="559,-193.5 559,-214.5 671,-214.5 671,-193.5 559,-193.5"/>
<polygon fill="none" stroke="black" points="559,-193.5 559,-214.5 671,-214.5 671,-193.5 559,-193.5"/>
<text text-anchor="start" x="562" y="-201.3" font-family="arial" font-weight="bold" font-size="14.00">Schema Object</text>
<polygon fill="#6ca437" stroke="transparent" points="559,-172.5 559,-193.5 671,-193.5 671,-172.5 559,-172.5"/>
<polygon fill="none" stroke="black" points="559,-172.5 559,-193.5 671,-193.5 671,-172.5 559,-172.5"/>
<text text-anchor="start" x="594" y="-179.3" font-family="monospace" font-size="14.00">title</text>
<polygon fill="#6ca437" stroke="transparent" points="559,-151.5 559,-172.5 671,-172.5 671,-151.5 559,-151.5"/>
<polygon fill="none" stroke="black" points="559,-151.5 559,-172.5 671,-172.5 671,-151.5 559,-151.5"/>
<text text-anchor="start" x="569.5" y="-158.3" font-family="monospace" font-size="14.00">description</text>
<polygon fill="#6ca437" stroke="transparent" points="559,-130.5 559,-151.5 671,-151.5 671,-130.5 559,-130.5"/>
<polygon fill="none" stroke="black" points="559,-130.5 559,-151.5 671,-151.5 671,-130.5 559,-130.5"/>
<text text-anchor="start" x="598" y="-137.3" font-family="monospace" font-size="14.00">type</text>
<polygon fill="#6ca437" stroke="transparent" points="559,-109.5 559,-130.5 671,-130.5 671,-109.5 559,-109.5"/>
<polygon fill="none" stroke="black" points="559,-109.5 559,-130.5 671,-130.5 671,-109.5 559,-109.5"/>
<text text-anchor="start" x="594" y="-116.3" font-family="monospace" font-size="14.00">items</text>
<polygon fill="#6ca437" stroke="transparent" points="559,-88.5 559,-109.5 671,-109.5 671,-88.5 559,-88.5"/>
<polygon fill="none" stroke="black" points="559,-88.5 559,-109.5 671,-109.5 671,-88.5 559,-88.5"/>
<text text-anchor="start" x="573.5" y="-95.3" font-family="monospace" font-size="14.00">properties</text>
<polygon fill="#6ca437" stroke="transparent" points="559,-67.5 559,-88.5 671,-88.5 671,-67.5 559,-67.5"/>
<polygon fill="none" stroke="black" points="559,-67.5 559,-88.5 671,-88.5 671,-67.5 559,-67.5"/>
<text text-anchor="start" x="586" y="-74.3" font-family="monospace" font-size="14.00">example</text>
<polygon fill="#6ca437" stroke="transparent" points="559,-46.5 559,-67.5 671,-67.5 671,-46.5 559,-46.5"/>
<polygon fill="none" stroke="black" points="559,-46.5 559,-67.5 671,-67.5 671,-46.5 559,-46.5"/>
<text text-anchor="start" x="610.5" y="-53.3" font-family="monospace" font-size="14.00">…</text>
</a>
</g>
</g>
<!-- mediaTypeObject&#45;&gt;schemaObject -->
<g id="edge6" class="edge">
<title>mediaTypeObject:schema&#45;&gt;schemaObject:header</title>
<path fill="none" stroke="black" d="M508,-204.5C526.4,-204.5 533.38,-204.5 547.85,-204.5"/>
<polygon fill="black" stroke="black" points="548,-208 558,-204.5 548,-201 548,-208"/>
</g>
<!-- schemaObject&#45;&gt;schemaObject -->
<g id="edge8" class="edge">
<title>schemaObject:e&#45;&gt;schemaObject:n</title>
<path fill="none" stroke="black" d="M671,-119.5C712,-154.83 712,-236.5 643,-236.5 580.2,-236.5 574.56,-226.56 604.96,-217.23"/>
<polygon fill="black" stroke="black" points="606.27,-220.5 615,-214.5 604.43,-213.75 606.27,-220.5"/>
</g>
<!-- propertiesMap -->
<g id="node6" class="node">
<title>propertiesMap</title>
<g id="a_node6"><a xlink:href="https://spec.openapis.org/oas/v3.1.0#schemaObject" xlink:title="Click to jump to the specification of this object" target="_blank">
<polygon fill="#94d60a" stroke="transparent" points="723.5,-87.5 723.5,-108.5 836.5,-108.5 836.5,-87.5 723.5,-87.5"/>
<polygon fill="none" stroke="black" points="723.5,-87.5 723.5,-108.5 836.5,-108.5 836.5,-87.5 723.5,-87.5"/>
<text text-anchor="start" x="726.5" y="-95.3" font-family="arial" font-weight="bold" font-size="14.00">Properties Map</text>
<polygon fill="#6ca437" stroke="transparent" points="723.5,-66.5 723.5,-87.5 836.5,-87.5 836.5,-66.5 723.5,-66.5"/>
<polygon fill="none" stroke="black" points="723.5,-66.5 723.5,-87.5 836.5,-87.5 836.5,-66.5 723.5,-66.5"/>
<text text-anchor="start" x="738.5" y="-73.3" font-family="monospace" font-size="14.00">property&#45;1</text>
<polygon fill="#6ca437" stroke="transparent" points="723.5,-45.5 723.5,-66.5 836.5,-66.5 836.5,-45.5 723.5,-45.5"/>
<polygon fill="none" stroke="black" points="723.5,-45.5 723.5,-66.5 836.5,-66.5 836.5,-45.5 723.5,-45.5"/>
<text text-anchor="start" x="738.5" y="-52.3" font-family="monospace" font-size="14.00">property&#45;2</text>
<polygon fill="#6ca437" stroke="transparent" points="723.5,-24.5 723.5,-45.5 836.5,-45.5 836.5,-24.5 723.5,-24.5"/>
<polygon fill="none" stroke="black" points="723.5,-24.5 723.5,-45.5 836.5,-45.5 836.5,-24.5 723.5,-24.5"/>
<text text-anchor="start" x="738.5" y="-31.3" font-family="monospace" font-size="14.00">property&#45;3</text>
<polygon fill="#6ca437" stroke="transparent" points="723.5,-3.5 723.5,-24.5 836.5,-24.5 836.5,-3.5 723.5,-3.5"/>
<polygon fill="none" stroke="black" points="723.5,-3.5 723.5,-24.5 836.5,-24.5 836.5,-3.5 723.5,-3.5"/>
<text text-anchor="start" x="775.5" y="-10.3" font-family="monospace" font-size="14.00">…</text>
</a>
</g>
</g>
<!-- schemaObject&#45;&gt;propertiesMap -->
<g id="edge7" class="edge">
<title>schemaObject:properties&#45;&gt;propertiesMap:header</title>
<path fill="none" stroke="black" d="M672,-98.5C690.59,-98.5 697.63,-98.5 712.25,-98.5"/>
<polygon fill="black" stroke="black" points="712.5,-102 722.5,-98.5 712.5,-95 712.5,-102"/>
</g>
<!-- mergerNode -->
<g id="node7" class="node">
<title>mergerNode</title>
<g id="a_node7"><a xlink:title="Click to jump to the specification of this object">
<ellipse fill="black" stroke="black" cx="881.8" cy="-79.5" rx="1.8" ry="1.8"/>
</a>
</g>
</g>
<!-- propertiesMap&#45;&gt;mergerNode -->
<g id="edge9" class="edge">
<title>propertiesMap:e&#45;&gt;mergerNode:s</title>
<path fill="none" stroke="black" d="M837.5,-77.5C857.19,-77.5 881.8,-56.81 881.8,-76.5"/>
</g>
<!-- propertiesMap&#45;&gt;mergerNode -->
<g id="edge10" class="edge">
<title>propertiesMap:e&#45;&gt;mergerNode:s</title>
<path fill="none" stroke="black" d="M837.5,-55.5C859.29,-55.5 881.8,-54.71 881.8,-76.5"/>
</g>
<!-- propertiesMap&#45;&gt;mergerNode -->
<g id="edge11" class="edge">
<title>propertiesMap:e&#45;&gt;mergerNode:s</title>
<path fill="none" stroke="black" d="M837.5,-34.5C864.63,-34.5 881.8,-49.37 881.8,-76.5"/>
</g>
<!-- mergerNode&#45;&gt;schemaObject -->
<g id="edge12" class="edge">
<title>mergerNode:n&#45;&gt;schemaObject:n</title>
<path fill="none" stroke="black" d="M881.8,-82.5C881.8,-211.37 629.39,-340.72 615.59,-225.78"/>
<polygon fill="black" stroke="black" points="619.07,-225.28 615,-215.5 612.08,-225.68 619.07,-225.28"/>
</g>
</g>
</svg>
