<?xml version="1.0" encoding="UTF-8" standalone="no"?>
<!DOCTYPE svg PUBLIC "-//W3C//DTD SVG 1.1//EN"
 "http://www.w3.org/Graphics/SVG/1.1/DTD/svg11.dtd">
<!-- Generated by graphviz version 9.0.0 (20230911.1827)
 -->
<!-- Title: componentsObject Pages: 1 -->
<svg width="1135pt" height="313pt"
 viewBox="0.00 0.00 1134.75 312.75" xmlns="http://www.w3.org/2000/svg" xmlns:xlink="http://www.w3.org/1999/xlink">
<g id="graph0" class="graph" transform="scale(1 1) rotate(0) translate(4 308.75)">
<title>componentsObject</title>
<polygon fill="white" stroke="none" points="-4,4 -4,-308.75 1130.75,-308.75 1130.75,4 -4,4"/>
<!-- openapiObject -->
<g id="node1" class="node">
<title>openapiObject</title>
<g id="a_node1"><a xlink:href="https://spec.openapis.org/oas/v3.1.0#oasObject" xlink:title="Click to jump to the specification of this object" target="_blank">
<polygon fill="#94d60a" stroke="none" points="8,-279 8,-300.75 118.25,-300.75 118.25,-279 8,-279"/>
<polygon fill="none" stroke="black" points="8,-279 8,-300.75 118.25,-300.75 118.25,-279 8,-279"/>
<text text-anchor="start" x="11" y="-285.45" font-family="arial" font-weight="bold" font-size="14.00">OpenAPI Object</text>
<polygon fill="#6ca437" stroke="none" points="8,-258 8,-279 118.25,-279 118.25,-258 8,-258"/>
<polygon fill="none" stroke="black" points="8,-258 8,-279 118.25,-279 118.25,-258 8,-258"/>
<text text-anchor="start" x="34.25" y="-262.7" font-family="monospace" font-size="14.00">openapi</text>
<polygon fill="#6ca437" stroke="none" points="8,-237 8,-258 118.25,-258 118.25,-237 8,-237"/>
<polygon fill="none" stroke="black" points="8,-237 8,-258 118.25,-258 118.25,-237 8,-237"/>
<text text-anchor="start" x="46.62" y="-241.7" font-family="monospace" font-size="14.00">info</text>
<polygon fill="#6ca437" stroke="none" points="8,-216 8,-237 118.25,-237 118.25,-216 8,-216"/>
<polygon fill="none" stroke="black" points="8,-216 8,-237 118.25,-237 118.25,-216 8,-216"/>
<text text-anchor="start" x="21.88" y="-220.7" font-family="monospace" font-size="14.00">components</text>
<polygon fill="#6ca437" stroke="none" points="8,-195 8,-216 118.25,-216 118.25,-195 8,-195"/>
<polygon fill="none" stroke="black" points="8,-195 8,-216 118.25,-216 118.25,-195 8,-195"/>
<text text-anchor="start" x="30.12" y="-199.7" font-family="monospace" font-size="14.00">security</text>
<polygon fill="#6ca437" stroke="none" points="8,-174 8,-195 118.25,-195 118.25,-174 8,-174"/>
<polygon fill="none" stroke="black" points="8,-174 8,-195 118.25,-195 118.25,-174 8,-174"/>
<text text-anchor="start" x="42.5" y="-178.7" font-family="monospace" font-size="14.00">paths</text>
<polygon fill="#6ca437" stroke="none" points="8,-153 8,-174 118.25,-174 118.25,-153 8,-153"/>
<polygon fill="none" stroke="black" points="8,-153 8,-174 118.25,-174 118.25,-153 8,-153"/>
<text text-anchor="start" x="59" y="-157.7" font-family="monospace" font-size="14.00">…</text>
</a>
</g>
</g>
<!-- componentsObject -->
<g id="node2" class="node">
<title>componentsObject</title>
<g id="a_node2"><a xlink:href="https://spec.openapis.org/oas/v3.1.0#componentsObject" xlink:title="Click to jump to the specification of this object" target="_blank">
<polygon fill="#94d60a" stroke="none" points="311.5,-220 311.5,-241.75 447.25,-241.75 447.25,-220 311.5,-220"/>
<polygon fill="none" stroke="black" points="311.5,-220 311.5,-241.75 447.25,-241.75 447.25,-220 311.5,-220"/>
<text text-anchor="start" x="314.5" y="-226.45" font-family="arial" font-weight="bold" font-size="14.00">Components Object</text>
<polygon fill="#6ca437" stroke="none" points="311.5,-199 311.5,-220 447.25,-220 447.25,-199 311.5,-199"/>
<polygon fill="none" stroke="black" points="311.5,-199 311.5,-220 447.25,-220 447.25,-199 311.5,-199"/>
<text text-anchor="start" x="358.75" y="-203.7" font-family="monospace" font-size="14.00">links</text>
<polygon fill="#6ca437" stroke="none" points="311.5,-178 311.5,-199 447.25,-199 447.25,-178 311.5,-178"/>
<polygon fill="none" stroke="black" points="311.5,-178 311.5,-199 447.25,-199 447.25,-178 311.5,-178"/>
<text text-anchor="start" x="375.25" y="-182.7" font-family="monospace" font-size="14.00">…</text>
</a>
</g>
</g>
<!-- openapiObject&#45;&gt;componentsObject -->
<g id="edge1" class="edge">
<title>openapiObject:components&#45;&gt;componentsObject:header</title>
<path fill="none" stroke="black" d="M119.12,-226.88C200.32,-226.88 223.32,-230.52 299.29,-230.85"/>
<polygon fill="black" stroke="black" points="298.85,-234.35 308.86,-230.87 298.87,-227.35 298.85,-234.35"/>
</g>
<!-- pathsObject -->
<g id="node3" class="node">
<title>pathsObject</title>
<g id="a_node3"><a xlink:href="https://spec.openapis.org/oas/v3.1.0#pathsObject" xlink:title="Click to jump to the specification of this object" target="_blank">
<polygon fill="#939598" stroke="none" points="170.25,-173 170.25,-194.75 259.5,-194.75 259.5,-173 170.25,-173"/>
<polygon fill="none" stroke="black" points="170.25,-173 170.25,-194.75 259.5,-194.75 259.5,-173 170.25,-173"/>
<text text-anchor="start" x="173.25" y="-179.45" font-family="arial" font-weight="bold" font-size="14.00">Paths Object</text>
<polygon fill="#6d6e71" stroke="none" points="170.25,-152 170.25,-173 259.5,-173 259.5,-152 170.25,-152"/>
<polygon fill="none" stroke="black" points="170.25,-152 170.25,-173 259.5,-173 259.5,-152 170.25,-152"/>
<text text-anchor="start" x="173.62" y="-156.7" font-family="monospace" font-size="14.00">/endpoint1</text>
<polygon fill="#6d6e71" stroke="none" points="170.25,-131 170.25,-152 259.5,-152 259.5,-131 170.25,-131"/>
<polygon fill="none" stroke="black" points="170.25,-131 170.25,-152 259.5,-152 259.5,-131 170.25,-131"/>
<text text-anchor="start" x="173.62" y="-135.7" font-family="monospace" font-size="14.00">/endpoint2</text>
<polygon fill="#6d6e71" stroke="none" points="170.25,-110 170.25,-131 259.5,-131 259.5,-110 170.25,-110"/>
<polygon fill="none" stroke="black" points="170.25,-110 170.25,-131 259.5,-131 259.5,-110 170.25,-110"/>
<text text-anchor="start" x="173.62" y="-114.7" font-family="monospace" font-size="14.00">/endpoint3</text>
<polygon fill="#6d6e71" stroke="none" points="170.25,-89 170.25,-110 259.5,-110 259.5,-89 170.25,-89"/>
<polygon fill="none" stroke="black" points="170.25,-89 170.25,-110 259.5,-110 259.5,-89 170.25,-89"/>
<text text-anchor="start" x="210.75" y="-93.7" font-family="monospace" font-size="14.00">…</text>
</a>
</g>
</g>
<!-- openapiObject&#45;&gt;pathsObject -->
<g id="edge3" class="edge">
<title>openapiObject:paths&#45;&gt;pathsObject:header</title>
<path fill="none" stroke="black" d="M119.12,-184.88C136.92,-184.88 143.97,-184.23 157.57,-183.97"/>
<polygon fill="black" stroke="black" points="157.39,-187.48 167.36,-183.89 157.33,-180.48 157.39,-187.48"/>
</g>
<!-- linkObject -->
<g id="node8" class="node">
<title>linkObject</title>
<g id="a_node8"><a xlink:href="https://spec.openapis.org/oas/v3.1.0#linkObject" xlink:title="Click to jump to the specification of this object" target="_blank">
<polygon fill="#94d60a" stroke="none" points="1013.75,-131 1013.75,-152.75 1118.75,-152.75 1118.75,-131 1013.75,-131"/>
<polygon fill="none" stroke="black" points="1013.75,-131 1013.75,-152.75 1118.75,-152.75 1118.75,-131 1013.75,-131"/>
<text text-anchor="start" x="1029.12" y="-137.45" font-family="arial" font-weight="bold" font-size="14.00">Link Object</text>
<polygon fill="#6ca437" stroke="none" points="1013.75,-110 1013.75,-131 1118.75,-131 1118.75,-110 1013.75,-110"/>
<polygon fill="none" stroke="black" points="1013.75,-110 1013.75,-131 1118.75,-131 1118.75,-110 1013.75,-110"/>
<text text-anchor="start" x="1016.75" y="-114.7" font-family="monospace" font-size="14.00">operationRef</text>
<polygon fill="#6ca437" stroke="none" points="1013.75,-89 1013.75,-110 1118.75,-110 1118.75,-89 1013.75,-89"/>
<polygon fill="none" stroke="black" points="1013.75,-89 1013.75,-110 1118.75,-110 1118.75,-89 1013.75,-89"/>
<text text-anchor="start" x="1020.88" y="-93.7" font-family="monospace" font-size="14.00">operationId</text>
<polygon fill="#6ca437" stroke="none" points="1013.75,-68 1013.75,-89 1118.75,-89 1118.75,-68 1013.75,-68"/>
<polygon fill="none" stroke="black" points="1013.75,-68 1013.75,-89 1118.75,-89 1118.75,-68 1013.75,-68"/>
<text text-anchor="start" x="1025" y="-72.7" font-family="monospace" font-size="14.00">parameters</text>
<polygon fill="#6ca437" stroke="none" points="1013.75,-47 1013.75,-68 1118.75,-68 1118.75,-47 1013.75,-47"/>
<polygon fill="none" stroke="black" points="1013.75,-47 1013.75,-68 1118.75,-68 1118.75,-47 1013.75,-47"/>
<text text-anchor="start" x="1020.88" y="-51.7" font-family="monospace" font-size="14.00">requestBody</text>
<polygon fill="#6ca437" stroke="none" points="1013.75,-26 1013.75,-47 1118.75,-47 1118.75,-26 1013.75,-26"/>
<polygon fill="none" stroke="black" points="1013.75,-26 1013.75,-47 1118.75,-47 1118.75,-26 1013.75,-26"/>
<text text-anchor="start" x="1020.88" y="-30.7" font-family="monospace" font-size="14.00">description</text>
<polygon fill="#6ca437" stroke="none" points="1013.75,-5 1013.75,-26 1118.75,-26 1118.75,-5 1013.75,-5"/>
<polygon fill="none" stroke="black" points="1013.75,-5 1013.75,-26 1118.75,-26 1118.75,-5 1013.75,-5"/>
<text text-anchor="start" x="1041.5" y="-9.7" font-family="monospace" font-size="14.00">server</text>
</a>
</g>
</g>
<!-- componentsObject&#45;&gt;linkObject -->
<g id="edge2" class="edge">
<title>componentsObject:links&#45;&gt;linkObject:header</title>
<path fill="none" stroke="black" d="M448.38,-209.88C696.98,-209.88 757.99,-143.92 1000.92,-141.92"/>
<polygon fill="black" stroke="black" points="1000.75,-145.42 1010.74,-141.88 1000.72,-138.42 1000.75,-145.42"/>
</g>
<!-- pathItemObject -->
<g id="node4" class="node">
<title>pathItemObject</title>
<g id="a_node4"><a xlink:href="https://spec.openapis.org/oas/v3.1.0#pathItemObject" xlink:title="Click to jump to the specification of this object" target="_blank">
<polygon fill="#939598" stroke="none" points="322.38,-130 322.38,-151.75 436.38,-151.75 436.38,-130 322.38,-130"/>
<polygon fill="none" stroke="black" points="322.38,-130 322.38,-151.75 436.38,-151.75 436.38,-130 322.38,-130"/>
<text text-anchor="start" x="325.38" y="-136.45" font-family="arial" font-weight="bold" font-size="14.00">Path Item Object</text>
<polygon fill="#6d6e71" stroke="none" points="322.38,-109 322.38,-130 436.38,-130 436.38,-109 322.38,-109"/>
<polygon fill="none" stroke="black" points="322.38,-109 322.38,-130 436.38,-130 436.38,-109 322.38,-109"/>
<text text-anchor="start" x="354.62" y="-113.7" font-family="monospace" font-size="14.00">delete</text>
<polygon fill="#6d6e71" stroke="none" points="322.38,-88 322.38,-109 436.38,-109 436.38,-88 322.38,-88"/>
<polygon fill="none" stroke="black" points="322.38,-88 322.38,-109 436.38,-109 436.38,-88 322.38,-88"/>
<text text-anchor="start" x="367" y="-92.7" font-family="monospace" font-size="14.00">get</text>
<polygon fill="#6d6e71" stroke="none" points="322.38,-67 322.38,-88 436.38,-88 436.38,-67 322.38,-67"/>
<polygon fill="none" stroke="black" points="322.38,-67 322.38,-88 436.38,-88 436.38,-67 322.38,-67"/>
<text text-anchor="start" x="358.75" y="-71.7" font-family="monospace" font-size="14.00">patch</text>
<polygon fill="#6d6e71" stroke="none" points="322.38,-46 322.38,-67 436.38,-67 436.38,-46 322.38,-46"/>
<polygon fill="none" stroke="black" points="322.38,-46 322.38,-67 436.38,-67 436.38,-46 322.38,-46"/>
<text text-anchor="start" x="362.88" y="-50.7" font-family="monospace" font-size="14.00">post</text>
<polygon fill="#6d6e71" stroke="none" points="322.38,-25 322.38,-46 436.38,-46 436.38,-25 322.38,-25"/>
<polygon fill="none" stroke="black" points="322.38,-25 322.38,-46 436.38,-46 436.38,-25 322.38,-25"/>
<text text-anchor="start" x="367" y="-29.7" font-family="monospace" font-size="14.00">put</text>
<polygon fill="#6d6e71" stroke="none" points="322.38,-4 322.38,-25 436.38,-25 436.38,-4 322.38,-4"/>
<polygon fill="none" stroke="black" points="322.38,-4 322.38,-25 436.38,-25 436.38,-4 322.38,-4"/>
<text text-anchor="start" x="375.25" y="-8.7" font-family="monospace" font-size="14.00">…</text>
</a>
</g>
</g>
<!-- pathsObject&#45;&gt;pathItemObject -->
<g id="edge4" class="edge">
<title>pathsObject:endpoint1&#45;&gt;pathItemObject:header</title>
<path fill="none" stroke="black" d="M260.88,-162.88C285.24,-162.88 291.23,-146.92 310.14,-142.19"/>
<polygon fill="black" stroke="black" points="310.34,-145.69 319.87,-141.05 309.53,-138.73 310.34,-145.69"/>
</g>
<!-- pathsObject&#45;&gt;pathItemObject -->
<g id="edge5" class="edge">
<title>pathsObject:endpoint2&#45;&gt;pathItemObject:header</title>
<path fill="none" stroke="black" d="M260.88,-141.88C283.57,-141.88 291.89,-141.16 310.09,-140.94"/>
<polygon fill="black" stroke="black" points="309.88,-144.44 319.86,-140.88 309.84,-137.44 309.88,-144.44"/>
</g>
<!-- pathsObject&#45;&gt;pathItemObject -->
<g id="edge6" class="edge">
<title>pathsObject:endpoint3&#45;&gt;pathItemObject:header</title>
<path fill="none" stroke="black" d="M260.88,-120.88C284.88,-120.88 291.31,-135.25 309.96,-139.62"/>
<polygon fill="black" stroke="black" points="309.55,-143.1 319.87,-140.71 310.31,-136.14 309.55,-143.1"/>
</g>
<!-- operationObject -->
<g id="node5" class="node">
<title>operationObject</title>
<g id="a_node5"><a xlink:href="https://spec.openapis.org/oas/v3.1.0#operationObject" xlink:title="Click to jump to the specification of this object" target="_blank">
<polygon fill="#939598" stroke="none" points="499.25,-77 499.25,-98.75 616.25,-98.75 616.25,-77 499.25,-77"/>
<polygon fill="none" stroke="black" points="499.25,-77 499.25,-98.75 616.25,-98.75 616.25,-77 499.25,-77"/>
<text text-anchor="start" x="502.25" y="-83.45" font-family="arial" font-weight="bold" font-size="14.00">Operation Object</text>
<polygon fill="#6d6e71" stroke="none" points="499.25,-56 499.25,-77 616.25,-77 616.25,-56 499.25,-56"/>
<polygon fill="none" stroke="black" points="499.25,-56 499.25,-77 616.25,-77 616.25,-56 499.25,-56"/>
<text text-anchor="start" x="520.62" y="-60.7" font-family="monospace" font-size="14.00">responses</text>
<polygon fill="#6d6e71" stroke="none" points="499.25,-35 499.25,-56 616.25,-56 616.25,-35 499.25,-35"/>
<polygon fill="none" stroke="black" points="499.25,-35 499.25,-56 616.25,-56 616.25,-35 499.25,-35"/>
<text text-anchor="start" x="553.62" y="-39.7" font-family="monospace" font-size="14.00">…</text>
</a>
</g>
</g>
<!-- pathItemObject&#45;&gt;operationObject -->
<g id="edge7" class="edge">
<title>pathItemObject:delete&#45;&gt;operationObject:header</title>
<path fill="none" stroke="black" d="M437.38,-119.88C463.47,-119.88 466.88,-96.24 486.59,-89.6"/>
<polygon fill="black" stroke="black" points="486.9,-93.09 496.25,-88.11 485.84,-86.17 486.9,-93.09"/>
</g>
<!-- pathItemObject&#45;&gt;operationObject -->
<g id="edge8" class="edge">
<title>pathItemObject:get&#45;&gt;operationObject:header</title>
<path fill="none" stroke="black" d="M437.38,-98.88C460.39,-98.88 468.13,-91.04 486.37,-88.6"/>
<polygon fill="black" stroke="black" points="486.48,-92.1 496.24,-87.97 486.04,-85.11 486.48,-92.1"/>
</g>
<!-- pathItemObject&#45;&gt;operationObject -->
<g id="edge9" class="edge">
<title>pathItemObject:patch&#45;&gt;operationObject:header</title>
<path fill="none" stroke="black" d="M437.38,-77.88C460.32,-77.88 468.17,-84.99 486.39,-87.22"/>
<polygon fill="black" stroke="black" points="486.05,-90.71 496.24,-87.79 486.46,-83.72 486.05,-90.71"/>
</g>
<!-- pathItemObject&#45;&gt;operationObject -->
<g id="edge10" class="edge">
<title>pathItemObject:post&#45;&gt;operationObject:header</title>
<path fill="none" stroke="black" d="M437.38,-56.88C463.18,-56.88 466.94,-79.56 486.38,-86.12"/>
<polygon fill="black" stroke="black" points="485.84,-89.58 496.25,-87.64 486.91,-82.66 485.84,-89.58"/>
</g>
<!-- pathItemObject&#45;&gt;operationObject -->
<g id="edge11" class="edge">
<title>pathItemObject:put&#45;&gt;operationObject:header</title>
<path fill="none" stroke="black" d="M437.38,-35.88C468.5,-35.88 464.2,-76.04 486.74,-85.77"/>
<polygon fill="black" stroke="black" points="485.78,-89.15 496.26,-87.59 487.1,-82.28 485.78,-89.15"/>
</g>
<!-- responsesObject -->
<g id="node6" class="node">
<title>responsesObject</title>
<g id="a_node6"><a xlink:href="https://spec.openapis.org/oas/v3.1.0#responsesObject" xlink:title="Click to jump to the specification of this object" target="_blank">
<polygon fill="#939598" stroke="none" points="668.25,-89 668.25,-110.75 792.75,-110.75 792.75,-89 668.25,-89"/>
<polygon fill="none" stroke="black" points="668.25,-89 668.25,-110.75 792.75,-110.75 792.75,-89 668.25,-89"/>
<text text-anchor="start" x="671.25" y="-95.45" font-family="arial" font-weight="bold" font-size="14.00">Responses Object</text>
<polygon fill="#6d6e71" stroke="none" points="668.25,-68 668.25,-89 792.75,-89 792.75,-68 668.25,-68"/>
<polygon fill="none" stroke="black" points="668.25,-68 668.25,-89 792.75,-89 792.75,-68 668.25,-68"/>
<text text-anchor="start" x="726.38" y="-72.7" font-family="monospace" font-size="14.00">*</text>
<polygon fill="#6d6e71" stroke="none" points="668.25,-47 668.25,-68 792.75,-68 792.75,-47 668.25,-47"/>
<polygon fill="none" stroke="black" points="668.25,-47 668.25,-68 792.75,-68 792.75,-47 668.25,-47"/>
<text text-anchor="start" x="726.38" y="-51.7" font-family="monospace" font-size="14.00">…</text>
</a>
</g>
</g>
<!-- operationObject&#45;&gt;responsesObject -->
<g id="edge12" class="edge">
<title>operationObject:responses&#45;&gt;responsesObject:header</title>
<path fill="none" stroke="black" d="M617.75,-66.88C639.93,-66.88 641.25,-89.94 656.59,-97.5"/>
<polygon fill="black" stroke="black" points="655.51,-100.85 666.02,-99.55 656.99,-94.01 655.51,-100.85"/>
</g>
<!-- responseObject -->
<g id="node7" class="node">
<title>responseObject</title>
<g id="a_node7"><a xlink:href="https://spec.openapis.org/oas/v3.1.0#responseObject" xlink:title="Click to jump to the specification of this object" target="_blank">
<polygon fill="#94d60a" stroke="none" points="844.75,-94 844.75,-115.75 961.75,-115.75 961.75,-94 844.75,-94"/>
<polygon fill="none" stroke="black" points="844.75,-94 844.75,-115.75 961.75,-115.75 961.75,-94 844.75,-94"/>
<text text-anchor="start" x="847.75" y="-100.45" font-family="arial" font-weight="bold" font-size="14.00">Response Object</text>
<polygon fill="#6ca437" stroke="none" points="844.75,-73 844.75,-94 961.75,-94 961.75,-73 844.75,-73"/>
<polygon fill="none" stroke="black" points="844.75,-73 844.75,-94 961.75,-94 961.75,-73 844.75,-73"/>
<text text-anchor="start" x="882.62" y="-77.7" font-family="monospace" font-size="14.00">links</text>
<polygon fill="#6ca437" stroke="none" points="844.75,-52 844.75,-73 961.75,-73 961.75,-52 844.75,-52"/>
<polygon fill="none" stroke="black" points="844.75,-52 844.75,-73 961.75,-73 961.75,-52 844.75,-52"/>
<text text-anchor="start" x="899.12" y="-56.7" font-family="monospace" font-size="14.00">…</text>
</a>
</g>
</g>
<!-- responsesObject&#45;&gt;responseObject -->
<g id="edge13" class="edge">
<title>responsesObject:all&#45;&gt;responseObject:header</title>
<path fill="none" stroke="black" d="M793.5,-78.88C814.16,-78.88 817.61,-96.71 832.36,-102.83"/>
<polygon fill="black" stroke="black" points="831.29,-106.2 841.76,-104.6 832.58,-99.32 831.29,-106.2"/>
</g>
<!-- responseObject&#45;&gt;linkObject -->
<g id="edge14" class="edge">
<title>responseObject:links&#45;&gt;linkObject:header</title>
<path fill="none" stroke="black" d="M963.25,-83.88C992.51,-83.88 982.49,-127.49 1001.32,-139.08"/>
<polygon fill="black" stroke="black" points="1000.23,-142.41 1010.78,-141.5 1001.96,-135.63 1000.23,-142.41"/>
</g>
</g>
</svg>
