<?xml version="1.0" encoding="UTF-8" standalone="no"?>
<!DOCTYPE svg PUBLIC "-//W3C//DTD SVG 1.1//EN"
 "http://www.w3.org/Graphics/SVG/1.1/DTD/svg11.dtd">
<!-- Generated by graphviz version 2.44.1 (20200629.0800)
 -->
<!-- Title: openapiObject Pages: 1 -->
<svg width="274pt" height="144pt"
 viewBox="0.00 0.00 274.00 143.50" xmlns="http://www.w3.org/2000/svg" xmlns:xlink="http://www.w3.org/1999/xlink">
<g id="graph0" class="graph" transform="scale(1 1) rotate(0) translate(4 139.5)">
<title>openapiObject</title>
<polygon fill="white" stroke="transparent" points="-4,4 -4,-139.5 270,-139.5 270,4 -4,4"/>
<!-- openapiObject -->
<g id="node1" class="node">
<title>openapiObject</title>
<g id="a_node1"><a xlink:href="https://spec.openapis.org/oas/v3.1.0#oasObject" xlink:title="Click to jump to the specification of this object" target="_blank">
<polygon fill="#94d60a" stroke="transparent" points="8,-110 8,-131 124,-131 124,-110 8,-110"/>
<polygon fill="none" stroke="black" points="8,-110 8,-131 124,-131 124,-110 8,-110"/>
<text text-anchor="start" x="11" y="-117.8" font-family="arial" font-weight="bold" font-size="14.00">OpenAPI Object</text>
<polygon fill="#6ca437" stroke="transparent" points="8,-89 8,-110 124,-110 124,-89 8,-89"/>
<polygon fill="none" stroke="black" points="8,-89 8,-110 124,-110 124,-89 8,-89"/>
<text text-anchor="start" x="37" y="-95.8" font-family="monospace" font-size="14.00">openapi</text>
<polygon fill="#6ca437" stroke="transparent" points="8,-68 8,-89 124,-89 124,-68 8,-68"/>
<polygon fill="none" stroke="black" points="8,-68 8,-89 124,-89 124,-68 8,-68"/>
<text text-anchor="start" x="49" y="-74.8" font-family="monospace" font-size="14.00">info</text>
<polygon fill="#6ca437" stroke="transparent" points="8,-47 8,-68 124,-68 124,-47 8,-47"/>
<polygon fill="none" stroke="black" points="8,-47 8,-68 124,-68 124,-47 8,-47"/>
<text text-anchor="start" x="45" y="-53.8" font-family="monospace" font-size="14.00">paths</text>
<polygon fill="#6ca437" stroke="transparent" points="8,-26 8,-47 124,-47 124,-26 8,-26"/>
<polygon fill="none" stroke="black" points="8,-26 8,-47 124,-47 124,-26 8,-26"/>
<text text-anchor="start" x="61.5" y="-32.8" font-family="monospace" font-size="14.00">…</text>
</a>
</g>
</g>
<!-- infoObject -->
<g id="node2" class="node">
<title>infoObject</title>
<g id="a_node2"><a xlink:href="https://spec.openapis.org/oas/v3.1.0#infoObject" xlink:title="Click to jump to the specification of this object" target="_blank">
<polygon fill="#94d60a" stroke="transparent" points="176,-67 176,-88 258,-88 258,-67 176,-67"/>
<polygon fill="none" stroke="black" points="176,-67 176,-88 258,-88 258,-67 176,-67"/>
<text text-anchor="start" x="179" y="-74.8" font-family="arial" font-weight="bold" font-size="14.00">Info Object</text>
<polygon fill="#6ca437" stroke="transparent" points="176,-46 176,-67 258,-67 258,-46 176,-46"/>
<polygon fill="none" stroke="black" points="176,-46 176,-67 258,-67 258,-46 176,-46"/>
<text text-anchor="start" x="196" y="-52.8" font-family="monospace" font-size="14.00">title</text>
<polygon fill="#6ca437" stroke="transparent" points="176,-25 176,-46 258,-46 258,-25 176,-25"/>
<polygon fill="none" stroke="black" points="176,-25 176,-46 258,-46 258,-25 176,-25"/>
<text text-anchor="start" x="188" y="-31.8" font-family="monospace" font-size="14.00">version</text>
<polygon fill="#6ca437" stroke="transparent" points="176,-4 176,-25 258,-25 258,-4 176,-4"/>
<polygon fill="none" stroke="black" points="176,-4 176,-25 258,-25 258,-4 176,-4"/>
<text text-anchor="start" x="212.5" y="-10.8" font-family="monospace" font-size="14.00">…</text>
</a>
</g>
</g>
<!-- openapiObject&#45;&gt;infoObject -->
<g id="edge1" class="edge">
<title>openapiObject:info&#45;&gt;infoObject:header</title>
<path fill="none" stroke="black" d="M125,-78C143.4,-78 150.38,-78 164.85,-78"/>
<polygon fill="black" stroke="black" points="165,-81.5 175,-78 165,-74.5 165,-81.5"/>
</g>
</g>
</svg>
