<?xml version="1.0" encoding="UTF-8" standalone="no"?>
<!DOCTYPE svg PUBLIC "-//W3C//DTD SVG 1.1//EN"
 "http://www.w3.org/Graphics/SVG/1.1/DTD/svg11.dtd">
<!-- Generated by graphviz version 2.44.1 (20200629.0800)
 -->
<!-- Title: parameterObject Pages: 1 -->
<svg width="1087pt" height="527pt"
 viewBox="0.00 0.00 1087.00 527.00" xmlns="http://www.w3.org/2000/svg" xmlns:xlink="http://www.w3.org/1999/xlink">
<g id="graph0" class="graph" transform="scale(1 1) rotate(0) translate(4 523)">
<title>parameterObject</title>
<polygon fill="white" stroke="transparent" points="-4,4 -4,-523 1083,-523 1083,4 -4,4"/>
<!-- pathItemObject -->
<g id="node1" class="node">
<title>pathItemObject</title>
<g id="a_node1"><a xlink:href="https://spec.openapis.org/oas/v3.1.0#pathItemObject" xlink:title="Click to jump to the specification of this object" target="_blank">
<polygon fill="#939598" stroke="transparent" points="8,-405 8,-426 128,-426 128,-405 8,-405"/>
<polygon fill="none" stroke="black" points="8,-405 8,-426 128,-426 128,-405 8,-405"/>
<text text-anchor="start" x="11" y="-412.8" font-family="arial" font-weight="bold" font-size="14.00">Path Item Object</text>
<polygon fill="#6d6e71" stroke="transparent" points="8,-384 8,-405 128,-405 128,-384 8,-384"/>
<polygon fill="none" stroke="black" points="8,-384 8,-405 128,-405 128,-384 8,-384"/>
<text text-anchor="start" x="55.5" y="-390.8" font-family="monospace" font-size="14.00">get</text>
<polygon fill="#6d6e71" stroke="transparent" points="8,-363 8,-384 128,-384 128,-363 8,-363"/>
<polygon fill="none" stroke="black" points="8,-363 8,-384 128,-384 128,-363 8,-363"/>
<text text-anchor="start" x="55.5" y="-369.8" font-family="monospace" font-size="14.00">put</text>
<polygon fill="#6d6e71" stroke="transparent" points="8,-342 8,-363 128,-363 128,-342 8,-342"/>
<polygon fill="none" stroke="black" points="8,-342 8,-363 128,-363 128,-342 8,-342"/>
<text text-anchor="start" x="51" y="-348.8" font-family="monospace" font-size="14.00">post</text>
<polygon fill="#6d6e71" stroke="transparent" points="8,-321 8,-342 128,-342 128,-321 8,-321"/>
<polygon fill="none" stroke="black" points="8,-321 8,-342 128,-342 128,-321 8,-321"/>
<text text-anchor="start" x="43" y="-327.8" font-family="monospace" font-size="14.00">delete</text>
<polygon fill="#6d6e71" stroke="transparent" points="8,-300 8,-321 128,-321 128,-300 8,-300"/>
<polygon fill="none" stroke="black" points="8,-300 8,-321 128,-321 128,-300 8,-300"/>
<text text-anchor="start" x="26.5" y="-306.8" font-family="monospace" font-size="14.00">parameters</text>
<polygon fill="#6d6e71" stroke="transparent" points="8,-279 8,-300 128,-300 128,-279 8,-279"/>
<polygon fill="none" stroke="black" points="8,-279 8,-300 128,-300 128,-279 8,-279"/>
<text text-anchor="start" x="63.5" y="-285.8" font-family="monospace" font-size="14.00">…</text>
</a>
</g>
</g>
<!-- operationObject -->
<g id="node2" class="node">
<title>operationObject</title>
<g id="a_node2"><a xlink:href="https://spec.openapis.org/oas/v3.1.0#operationObject" xlink:title="Click to jump to the specification of this object" target="_blank">
<polygon fill="#939598" stroke="transparent" points="181,-494 181,-515 305,-515 305,-494 181,-494"/>
<polygon fill="none" stroke="black" points="181,-494 181,-515 305,-515 305,-494 181,-494"/>
<text text-anchor="start" x="184" y="-501.8" font-family="arial" font-weight="bold" font-size="14.00">Operation Object</text>
<polygon fill="#6d6e71" stroke="transparent" points="181,-473 181,-494 305,-494 305,-473 181,-473"/>
<polygon fill="none" stroke="black" points="181,-473 181,-494 305,-494 305,-473 181,-473"/>
<text text-anchor="start" x="214" y="-479.8" font-family="monospace" font-size="14.00">summary</text>
<polygon fill="#6d6e71" stroke="transparent" points="181,-452 181,-473 305,-473 305,-452 181,-452"/>
<polygon fill="none" stroke="black" points="181,-452 181,-473 305,-473 305,-452 181,-452"/>
<text text-anchor="start" x="197.5" y="-458.8" font-family="monospace" font-size="14.00">description</text>
<polygon fill="#6d6e71" stroke="transparent" points="181,-431 181,-452 305,-452 305,-431 181,-431"/>
<polygon fill="none" stroke="black" points="181,-431 181,-452 305,-452 305,-431 181,-431"/>
<text text-anchor="start" x="197.5" y="-437.8" font-family="monospace" font-size="14.00">requestBody</text>
<polygon fill="#6d6e71" stroke="transparent" points="181,-410 181,-431 305,-431 305,-410 181,-410"/>
<polygon fill="none" stroke="black" points="181,-410 181,-431 305,-431 305,-410 181,-410"/>
<text text-anchor="start" x="205.5" y="-416.8" font-family="monospace" font-size="14.00">responses</text>
<polygon fill="#6d6e71" stroke="transparent" points="181,-389 181,-410 305,-410 305,-389 181,-389"/>
<polygon fill="none" stroke="black" points="181,-389 181,-410 305,-410 305,-389 181,-389"/>
<text text-anchor="start" x="197.5" y="-395.8" font-family="monospace" font-size="14.00">operationId</text>
<polygon fill="#6d6e71" stroke="transparent" points="181,-368 181,-389 305,-389 305,-368 181,-368"/>
<polygon fill="none" stroke="black" points="181,-368 181,-389 305,-389 305,-368 181,-368"/>
<text text-anchor="start" x="201.5" y="-374.8" font-family="monospace" font-size="14.00">parameters</text>
<polygon fill="#6d6e71" stroke="transparent" points="181,-347 181,-368 305,-368 305,-347 181,-347"/>
<polygon fill="none" stroke="black" points="181,-347 181,-368 305,-368 305,-347 181,-347"/>
<text text-anchor="start" x="238.5" y="-353.8" font-family="monospace" font-size="14.00">…</text>
</a>
</g>
</g>
<!-- pathItemObject&#45;&gt;operationObject -->
<g id="edge1" class="edge">
<title>pathItemObject:get&#45;&gt;operationObject:header</title>
<path fill="none" stroke="black" d="M129,-395C166.68,-395 135.44,-443.21 154,-476 160.46,-487.42 162.12,-498.18 170.08,-502.73"/>
<polygon fill="black" stroke="black" points="169.47,-506.18 180,-505 171.03,-499.36 169.47,-506.18"/>
</g>
<!-- pathItemObject&#45;&gt;operationObject -->
<g id="edge2" class="edge">
<title>pathItemObject:put&#45;&gt;operationObject:header</title>
<path fill="none" stroke="black" d="M129,-374C156.7,-374 150.81,-477 170.9,-500.34"/>
<polygon fill="black" stroke="black" points="169.5,-503.55 180,-505 172.7,-497.32 169.5,-503.55"/>
</g>
<!-- pathItemObject&#45;&gt;operationObject -->
<g id="edge3" class="edge">
<title>pathItemObject:post&#45;&gt;operationObject:header</title>
<path fill="none" stroke="black" d="M129,-352C161.2,-352 147.78,-475.5 170.71,-500.59"/>
<polygon fill="black" stroke="black" points="169.47,-503.87 180,-505 172.47,-497.55 169.47,-503.87"/>
</g>
<!-- pathItemObject&#45;&gt;operationObject -->
<g id="edge4" class="edge">
<title>pathItemObject:delete&#45;&gt;operationObject:header</title>
<path fill="none" stroke="black" d="M129,-331C169.78,-331 143.53,-379.86 155,-419 165.06,-453.32 145.09,-495.39 169.8,-503.58"/>
<polygon fill="black" stroke="black" points="169.61,-507.09 180,-505 170.58,-500.16 169.61,-507.09"/>
</g>
<!-- parameterObject -->
<g id="node5" class="node">
<title>parameterObject</title>
<g id="a_node5"><a xlink:href="https://spec.openapis.org/oas/v3.1.0#parameterObject" xlink:title="Click to jump to the specification of this object" target="_blank">
<polygon fill="#94d60a" stroke="transparent" points="377.5,-299 377.5,-320 504.5,-320 504.5,-299 377.5,-299"/>
<polygon fill="none" stroke="black" points="377.5,-299 377.5,-320 504.5,-320 504.5,-299 377.5,-299"/>
<text text-anchor="start" x="380.5" y="-306.8" font-family="arial" font-weight="bold" font-size="14.00">Parameter Object</text>
<polygon fill="#6ca437" stroke="transparent" points="377.5,-278 377.5,-299 504.5,-299 504.5,-278 377.5,-278"/>
<polygon fill="none" stroke="black" points="377.5,-278 377.5,-299 504.5,-299 504.5,-278 377.5,-278"/>
<text text-anchor="start" x="424" y="-284.8" font-family="monospace" font-size="14.00">name</text>
<polygon fill="#6ca437" stroke="transparent" points="377.5,-257 377.5,-278 504.5,-278 504.5,-257 377.5,-257"/>
<polygon fill="none" stroke="black" points="377.5,-257 377.5,-278 504.5,-278 504.5,-257 377.5,-257"/>
<text text-anchor="start" x="432.5" y="-263.8" font-family="monospace" font-size="14.00">in</text>
<polygon fill="#6ca437" stroke="transparent" points="377.5,-236 377.5,-257 504.5,-257 504.5,-236 377.5,-236"/>
<polygon fill="none" stroke="black" points="377.5,-236 377.5,-257 504.5,-257 504.5,-236 377.5,-236"/>
<text text-anchor="start" x="395.5" y="-242.8" font-family="monospace" font-size="14.00">description</text>
<polygon fill="#6ca437" stroke="transparent" points="377.5,-215 377.5,-236 504.5,-236 504.5,-215 377.5,-215"/>
<polygon fill="none" stroke="black" points="377.5,-215 377.5,-236 504.5,-236 504.5,-215 377.5,-215"/>
<text text-anchor="start" x="407.5" y="-221.8" font-family="monospace" font-size="14.00">required</text>
<polygon fill="#6ca437" stroke="transparent" points="377.5,-194 377.5,-215 504.5,-215 504.5,-194 377.5,-194"/>
<polygon fill="none" stroke="black" points="377.5,-194 377.5,-215 504.5,-215 504.5,-194 377.5,-194"/>
<text text-anchor="start" x="420" y="-200.8" font-family="monospace" font-size="14.00">style</text>
<polygon fill="#6ca437" stroke="transparent" points="377.5,-173 377.5,-194 504.5,-194 504.5,-173 377.5,-173"/>
<polygon fill="none" stroke="black" points="377.5,-173 377.5,-194 504.5,-194 504.5,-173 377.5,-173"/>
<text text-anchor="start" x="412" y="-179.8" font-family="monospace" font-size="14.00">content</text>
<polygon fill="#6ca437" stroke="transparent" points="377.5,-152 377.5,-173 504.5,-173 504.5,-152 377.5,-152"/>
<polygon fill="none" stroke="black" points="377.5,-152 377.5,-173 504.5,-173 504.5,-152 377.5,-152"/>
<text text-anchor="start" x="416" y="-158.8" font-family="monospace" font-size="14.00">schema</text>
<polygon fill="#6ca437" stroke="transparent" points="377.5,-131 377.5,-152 504.5,-152 504.5,-131 377.5,-131"/>
<polygon fill="none" stroke="black" points="377.5,-131 377.5,-152 504.5,-152 504.5,-131 377.5,-131"/>
<text text-anchor="start" x="436.5" y="-137.8" font-family="monospace" font-size="14.00">…</text>
</a>
</g>
</g>
<!-- pathItemObject&#45;&gt;parameterObject -->
<g id="edge5" class="edge">
<title>pathItemObject:parameters&#45;&gt;parameterObject:header</title>
<path fill="none" stroke="black" d="M129,-310C235.56,-310 264.7,-310 366.42,-310"/>
<polygon fill="black" stroke="black" points="366.5,-313.5 376.5,-310 366.5,-306.5 366.5,-313.5"/>
<text text-anchor="middle" x="243" y="-313.8" font-family="Times New Roman,serif" font-size="14.00">*</text>
</g>
<!-- requestBodyObject -->
<g id="node3" class="node">
<title>requestBodyObject</title>
<g id="a_node3"><a xlink:href="https://spec.openapis.org/oas/v3.1.0#requestBodyObject" xlink:title="Click to jump to the specification of this object" target="_blank">
<polygon fill="#94d60a" stroke="transparent" points="364.5,-431 364.5,-452 517.5,-452 517.5,-431 364.5,-431"/>
<polygon fill="none" stroke="black" points="364.5,-431 364.5,-452 517.5,-452 517.5,-431 364.5,-431"/>
<text text-anchor="start" x="367.5" y="-438.8" font-family="arial" font-weight="bold" font-size="14.00">Request Body Object</text>
<polygon fill="#6ca437" stroke="transparent" points="364.5,-410 364.5,-431 517.5,-431 517.5,-410 364.5,-410"/>
<polygon fill="none" stroke="black" points="364.5,-410 364.5,-431 517.5,-431 517.5,-410 364.5,-410"/>
<text text-anchor="start" x="395.5" y="-416.8" font-family="monospace" font-size="14.00">description</text>
<polygon fill="#6ca437" stroke="transparent" points="364.5,-389 364.5,-410 517.5,-410 517.5,-389 364.5,-389"/>
<polygon fill="none" stroke="black" points="364.5,-389 364.5,-410 517.5,-410 517.5,-389 364.5,-389"/>
<text text-anchor="start" x="412" y="-395.8" font-family="monospace" font-size="14.00">content</text>
<polygon fill="#6ca437" stroke="transparent" points="364.5,-368 364.5,-389 517.5,-389 517.5,-368 364.5,-368"/>
<polygon fill="none" stroke="black" points="364.5,-368 364.5,-389 517.5,-389 517.5,-368 364.5,-368"/>
<text text-anchor="start" x="436.5" y="-374.8" font-family="monospace" font-size="14.00">…</text>
</a>
</g>
</g>
<!-- operationObject&#45;&gt;requestBodyObject -->
<g id="edge7" class="edge">
<title>operationObject:requestBody&#45;&gt;requestBodyObject:header</title>
<path fill="none" stroke="black" d="M306,-442C327.76,-442 335.63,-442 353.26,-442"/>
<polygon fill="black" stroke="black" points="353.5,-445.5 363.5,-442 353.5,-438.5 353.5,-445.5"/>
</g>
<!-- operationObject&#45;&gt;parameterObject -->
<g id="edge6" class="edge">
<title>operationObject:parameters&#45;&gt;parameterObject:header</title>
<path fill="none" stroke="black" d="M306,-378C345.79,-378 335.37,-321.19 366.53,-311.42"/>
<polygon fill="black" stroke="black" points="367.09,-314.88 376.5,-310 366.11,-307.95 367.09,-314.88"/>
<text text-anchor="middle" x="334.5" y="-367.8" font-family="Times New Roman,serif" font-size="14.00">*</text>
</g>
<!-- requestMediaMap -->
<g id="node4" class="node">
<title>requestMediaMap</title>
<g id="a_node4"><a xlink:href="https://spec.openapis.org/oas/v3.1.0#requestBodyContent" xlink:title="Click to jump to the specification of this object" target="_blank">
<polygon fill="#939598" stroke="transparent" points="590.5,-388 590.5,-409 696.5,-409 696.5,-388 590.5,-388"/>
<polygon fill="none" stroke="black" points="590.5,-388 590.5,-409 696.5,-409 696.5,-388 590.5,-388"/>
<text text-anchor="start" x="605.5" y="-395.8" font-family="arial" font-weight="bold" font-size="14.00">Media Map</text>
<polygon fill="#6d6e71" stroke="transparent" points="590.5,-367 590.5,-388 696.5,-388 696.5,-367 590.5,-367"/>
<polygon fill="none" stroke="black" points="590.5,-367 590.5,-388 696.5,-388 696.5,-367 590.5,-367"/>
<text text-anchor="start" x="593.5" y="-373.8" font-family="monospace" font-size="14.00">media&#45;type&#45;1</text>
<polygon fill="#6d6e71" stroke="transparent" points="590.5,-346 590.5,-367 696.5,-367 696.5,-346 590.5,-346"/>
<polygon fill="none" stroke="black" points="590.5,-346 590.5,-367 696.5,-367 696.5,-346 590.5,-346"/>
<text text-anchor="start" x="593.5" y="-352.8" font-family="monospace" font-size="14.00">media&#45;type&#45;2</text>
<polygon fill="#6d6e71" stroke="transparent" points="590.5,-325 590.5,-346 696.5,-346 696.5,-325 590.5,-325"/>
<polygon fill="none" stroke="black" points="590.5,-325 590.5,-346 696.5,-346 696.5,-325 590.5,-325"/>
<text text-anchor="start" x="593.5" y="-331.8" font-family="monospace" font-size="14.00">media&#45;type&#45;3</text>
<polygon fill="#6d6e71" stroke="transparent" points="590.5,-304 590.5,-325 696.5,-325 696.5,-304 590.5,-304"/>
<polygon fill="none" stroke="black" points="590.5,-304 590.5,-325 696.5,-325 696.5,-304 590.5,-304"/>
<text text-anchor="start" x="639" y="-310.8" font-family="monospace" font-size="14.00">…</text>
</a>
</g>
</g>
<!-- requestBodyObject&#45;&gt;requestMediaMap -->
<g id="edge8" class="edge">
<title>requestBodyObject:content&#45;&gt;requestMediaMap:header</title>
<path fill="none" stroke="black" d="M518.5,-399C546.36,-399 555.77,-399 579.31,-399"/>
<polygon fill="black" stroke="black" points="579.5,-402.5 589.5,-399 579.5,-395.5 579.5,-402.5"/>
</g>
<!-- mediaTypeObject -->
<g id="node8" class="node">
<title>mediaTypeObject</title>
<g id="a_node8"><a xlink:href="https://spec.openapis.org/oas/v3.1.0#mediaTypeObject" xlink:title="Click to jump to the specification of this object" target="_blank">
<polygon fill="#939598" stroke="transparent" points="770,-324 770,-345 906,-345 906,-324 770,-324"/>
<polygon fill="none" stroke="black" points="770,-324 770,-345 906,-345 906,-324 770,-324"/>
<text text-anchor="start" x="773" y="-331.8" font-family="arial" font-weight="bold" font-size="14.00">Media Type Object</text>
<polygon fill="#6d6e71" stroke="transparent" points="770,-303 770,-324 906,-324 906,-303 770,-303"/>
<polygon fill="none" stroke="black" points="770,-303 770,-324 906,-324 906,-303 770,-303"/>
<text text-anchor="start" x="813" y="-309.8" font-family="monospace" font-size="14.00">schema</text>
<polygon fill="#6d6e71" stroke="transparent" points="770,-282 770,-303 906,-303 906,-282 770,-282"/>
<polygon fill="none" stroke="black" points="770,-282 770,-303 906,-303 906,-282 770,-282"/>
<text text-anchor="start" x="833.5" y="-288.8" font-family="monospace" font-size="14.00">…</text>
</a>
</g>
</g>
<!-- requestMediaMap&#45;&gt;mediaTypeObject -->
<g id="edge9" class="edge">
<title>requestMediaMap:media1&#45;&gt;mediaTypeObject:header</title>
<path fill="none" stroke="black" d="M697.5,-378C718.4,-378 726.26,-382.04 744,-371 756.66,-363.12 753.17,-346.2 759.58,-338.71"/>
<polygon fill="black" stroke="black" points="760.98,-341.92 769,-335 758.41,-335.41 760.98,-341.92"/>
</g>
<!-- requestMediaMap&#45;&gt;mediaTypeObject -->
<g id="edge10" class="edge">
<title>requestMediaMap:media2&#45;&gt;mediaTypeObject:header</title>
<path fill="none" stroke="black" d="M697.5,-356C718.64,-356 723.89,-352.51 744,-346 751.4,-343.6 754.6,-339.76 759.13,-337.31"/>
<polygon fill="black" stroke="black" points="760.06,-340.69 769,-335 758.47,-333.87 760.06,-340.69"/>
</g>
<!-- requestMediaMap&#45;&gt;mediaTypeObject -->
<g id="edge11" class="edge">
<title>requestMediaMap:media3&#45;&gt;mediaTypeObject:header</title>
<path fill="none" stroke="black" d="M697.5,-335C725.55,-335 735.03,-335 758.73,-335"/>
<polygon fill="black" stroke="black" points="759,-338.5 769,-335 759,-331.5 759,-338.5"/>
</g>
<!-- schemaObject -->
<g id="node6" class="node">
<title>schemaObject</title>
<g id="a_node6"><a xlink:href="https://spec.openapis.org/oas/v3.1.0#schemaObject" xlink:title="Click to jump to the specification of this object" target="_blank">
<polygon fill="#939598" stroke="transparent" points="959,-151 959,-172 1071,-172 1071,-151 959,-151"/>
<polygon fill="none" stroke="black" points="959,-151 959,-172 1071,-172 1071,-151 959,-151"/>
<text text-anchor="start" x="962" y="-158.8" font-family="arial" font-weight="bold" font-size="14.00">Schema Object</text>
<polygon fill="#6d6e71" stroke="transparent" points="959,-130 959,-151 1071,-151 1071,-130 959,-130"/>
<polygon fill="none" stroke="black" points="959,-130 959,-151 1071,-151 1071,-130 959,-130"/>
<text text-anchor="start" x="994" y="-136.8" font-family="monospace" font-size="14.00">title</text>
<polygon fill="#6d6e71" stroke="transparent" points="959,-109 959,-130 1071,-130 1071,-109 959,-109"/>
<polygon fill="none" stroke="black" points="959,-109 959,-130 1071,-130 1071,-109 959,-109"/>
<text text-anchor="start" x="969.5" y="-115.8" font-family="monospace" font-size="14.00">description</text>
<polygon fill="#6d6e71" stroke="transparent" points="959,-88 959,-109 1071,-109 1071,-88 959,-88"/>
<polygon fill="none" stroke="black" points="959,-88 959,-109 1071,-109 1071,-88 959,-88"/>
<text text-anchor="start" x="998" y="-94.8" font-family="monospace" font-size="14.00">type</text>
<polygon fill="#6d6e71" stroke="transparent" points="959,-67 959,-88 1071,-88 1071,-67 959,-67"/>
<polygon fill="none" stroke="black" points="959,-67 959,-88 1071,-88 1071,-67 959,-67"/>
<text text-anchor="start" x="994" y="-73.8" font-family="monospace" font-size="14.00">items</text>
<polygon fill="#6d6e71" stroke="transparent" points="959,-46 959,-67 1071,-67 1071,-46 959,-46"/>
<polygon fill="none" stroke="black" points="959,-46 959,-67 1071,-67 1071,-46 959,-46"/>
<text text-anchor="start" x="973.5" y="-52.8" font-family="monospace" font-size="14.00">properties</text>
<polygon fill="#6d6e71" stroke="transparent" points="959,-25 959,-46 1071,-46 1071,-25 959,-25"/>
<polygon fill="none" stroke="black" points="959,-25 959,-46 1071,-46 1071,-25 959,-25"/>
<text text-anchor="start" x="986" y="-31.8" font-family="monospace" font-size="14.00">example</text>
<polygon fill="#6d6e71" stroke="transparent" points="959,-4 959,-25 1071,-25 1071,-4 959,-4"/>
<polygon fill="none" stroke="black" points="959,-4 959,-25 1071,-25 1071,-4 959,-4"/>
<text text-anchor="start" x="1010.5" y="-10.8" font-family="monospace" font-size="14.00">…</text>
</a>
</g>
</g>
<!-- parameterObject&#45;&gt;schemaObject -->
<g id="edge12" class="edge">
<title>parameterObject:schema&#45;&gt;schemaObject:header</title>
<path fill="none" stroke="black" d="M505.5,-162C703.17,-162 755.13,-162 947.82,-162"/>
<polygon fill="black" stroke="black" points="948,-165.5 958,-162 948,-158.5 948,-165.5"/>
</g>
<!-- paramMediaMap -->
<g id="node7" class="node">
<title>paramMediaMap</title>
<g id="a_node7"><a xlink:href="https://spec.openapis.org/oas/v3.1.0#parameterContent" xlink:title="Click to jump to the specification of this object" target="_blank">
<polygon fill="#939598" stroke="transparent" points="570.5,-236 570.5,-257 717.5,-257 717.5,-236 570.5,-236"/>
<polygon fill="none" stroke="black" points="570.5,-236 570.5,-257 717.5,-257 717.5,-236 570.5,-236"/>
<text text-anchor="start" x="606" y="-243.8" font-family="arial" font-weight="bold" font-size="14.00">Media Map</text>
<polygon fill="#6d6e71" stroke="transparent" points="570.5,-215 570.5,-236 717.5,-236 717.5,-215 570.5,-215"/>
<polygon fill="none" stroke="black" points="570.5,-215 570.5,-236 717.5,-236 717.5,-215 570.5,-215"/>
<text text-anchor="start" x="573.5" y="-221.8" font-family="monospace" font-size="14.00">single&#45;media&#45;type</text>
</a>
</g>
</g>
<!-- parameterObject&#45;&gt;paramMediaMap -->
<g id="edge13" class="edge">
<title>parameterObject:content&#45;&gt;paramMediaMap:header</title>
<path fill="none" stroke="black" d="M505.5,-183C541.96,-183 531.86,-235.56 559.59,-245.42"/>
<polygon fill="black" stroke="black" points="559.07,-248.88 569.5,-247 560.18,-241.97 559.07,-248.88"/>
</g>
<!-- paramMediaMap&#45;&gt;mediaTypeObject -->
<g id="edge14" class="edge">
<title>paramMediaMap:media&#45;&gt;mediaTypeObject:header</title>
<path fill="none" stroke="black" d="M718.5,-225C768.3,-225 723.07,-319.28 758.76,-333.27"/>
<polygon fill="black" stroke="black" points="758.56,-336.79 769,-335 759.72,-329.88 758.56,-336.79"/>
</g>
<!-- mediaTypeObject&#45;&gt;schemaObject -->
<g id="edge15" class="edge">
<title>mediaTypeObject:schema&#45;&gt;schemaObject:header</title>
<path fill="none" stroke="black" d="M907,-313C973.96,-313 896.6,-178.06 947.77,-163.31"/>
<polygon fill="black" stroke="black" points="948.52,-166.74 958,-162 947.64,-159.79 948.52,-166.74"/>
</g>
</g>
</svg>
