<?xml version="1.0" encoding="UTF-8" standalone="no"?>
<!DOCTYPE svg PUBLIC "-//W3C//DTD SVG 1.1//EN"
 "http://www.w3.org/Graphics/SVG/1.1/DTD/svg11.dtd">
<!-- Generated by graphviz version 9.0.0 (20230911.1827)
 -->
<!-- Title: componentsObject Pages: 1 -->
<svg width="1686pt" height="438pt"
 viewBox="0.00 0.00 1685.75 438.25" xmlns="http://www.w3.org/2000/svg" xmlns:xlink="http://www.w3.org/1999/xlink">
<g id="graph0" class="graph" transform="scale(1 1) rotate(0) translate(4 434.25)">
<title>componentsObject</title>
<polygon fill="white" stroke="none" points="-4,4 -4,-434.25 1681.75,-434.25 1681.75,4 -4,4"/>
<!-- openapiObject -->
<g id="node1" class="node">
<title>openapiObject</title>
<g id="a_node1"><a xlink:href="https://spec.openapis.org/oas/v3.1.0#oasObject" xlink:title="Click to jump to the specification of this object" target="_blank">
<polygon fill="#94d60a" stroke="none" points="8,-341 8,-362.75 118.25,-362.75 118.25,-341 8,-341"/>
<polygon fill="none" stroke="black" points="8,-341 8,-362.75 118.25,-362.75 118.25,-341 8,-341"/>
<text text-anchor="start" x="11" y="-347.45" font-family="arial" font-weight="bold" font-size="14.00">OpenAPI Object</text>
<polygon fill="#6ca437" stroke="none" points="8,-320 8,-341 118.25,-341 118.25,-320 8,-320"/>
<polygon fill="none" stroke="black" points="8,-320 8,-341 118.25,-341 118.25,-320 8,-320"/>
<text text-anchor="start" x="34.25" y="-324.7" font-family="monospace" font-size="14.00">openapi</text>
<polygon fill="#6ca437" stroke="none" points="8,-299 8,-320 118.25,-320 118.25,-299 8,-299"/>
<polygon fill="none" stroke="black" points="8,-299 8,-320 118.25,-320 118.25,-299 8,-299"/>
<text text-anchor="start" x="46.62" y="-303.7" font-family="monospace" font-size="14.00">info</text>
<polygon fill="#6ca437" stroke="none" points="8,-278 8,-299 118.25,-299 118.25,-278 8,-278"/>
<polygon fill="none" stroke="black" points="8,-278 8,-299 118.25,-299 118.25,-278 8,-278"/>
<text text-anchor="start" x="21.88" y="-282.7" font-family="monospace" font-size="14.00">components</text>
<polygon fill="#6ca437" stroke="none" points="8,-257 8,-278 118.25,-278 118.25,-257 8,-257"/>
<polygon fill="none" stroke="black" points="8,-257 8,-278 118.25,-278 118.25,-257 8,-257"/>
<text text-anchor="start" x="30.12" y="-261.7" font-family="monospace" font-size="14.00">security</text>
<polygon fill="#6ca437" stroke="none" points="8,-236 8,-257 118.25,-257 118.25,-236 8,-236"/>
<polygon fill="none" stroke="black" points="8,-236 8,-257 118.25,-257 118.25,-236 8,-236"/>
<text text-anchor="start" x="42.5" y="-240.7" font-family="monospace" font-size="14.00">paths</text>
<polygon fill="#6ca437" stroke="none" points="8,-215 8,-236 118.25,-236 118.25,-215 8,-215"/>
<polygon fill="none" stroke="black" points="8,-215 8,-236 118.25,-236 118.25,-215 8,-215"/>
<text text-anchor="start" x="59" y="-219.7" font-family="monospace" font-size="14.00">…</text>
</a>
</g>
</g>
<!-- pathsObject -->
<g id="node2" class="node">
<title>pathsObject</title>
<g id="a_node2"><a xlink:href="https://spec.openapis.org/oas/v3.1.0#pathsObject" xlink:title="Click to jump to the specification of this object" target="_blank">
<polygon fill="#939598" stroke="none" points="170.25,-214 170.25,-235.75 259.5,-235.75 259.5,-214 170.25,-214"/>
<polygon fill="none" stroke="black" points="170.25,-214 170.25,-235.75 259.5,-235.75 259.5,-214 170.25,-214"/>
<text text-anchor="start" x="173.25" y="-220.45" font-family="arial" font-weight="bold" font-size="14.00">Paths Object</text>
<polygon fill="#6d6e71" stroke="none" points="170.25,-193 170.25,-214 259.5,-214 259.5,-193 170.25,-193"/>
<polygon fill="none" stroke="black" points="170.25,-193 170.25,-214 259.5,-214 259.5,-193 170.25,-193"/>
<text text-anchor="start" x="173.62" y="-197.7" font-family="monospace" font-size="14.00">/endpoint1</text>
<polygon fill="#6d6e71" stroke="none" points="170.25,-172 170.25,-193 259.5,-193 259.5,-172 170.25,-172"/>
<polygon fill="none" stroke="black" points="170.25,-172 170.25,-193 259.5,-193 259.5,-172 170.25,-172"/>
<text text-anchor="start" x="173.62" y="-176.7" font-family="monospace" font-size="14.00">/endpoint2</text>
<polygon fill="#6d6e71" stroke="none" points="170.25,-151 170.25,-172 259.5,-172 259.5,-151 170.25,-151"/>
<polygon fill="none" stroke="black" points="170.25,-151 170.25,-172 259.5,-172 259.5,-151 170.25,-151"/>
<text text-anchor="start" x="173.62" y="-155.7" font-family="monospace" font-size="14.00">/endpoint3</text>
<polygon fill="#6d6e71" stroke="none" points="170.25,-130 170.25,-151 259.5,-151 259.5,-130 170.25,-130"/>
<polygon fill="none" stroke="black" points="170.25,-130 170.25,-151 259.5,-151 259.5,-130 170.25,-130"/>
<text text-anchor="start" x="210.75" y="-134.7" font-family="monospace" font-size="14.00">…</text>
</a>
</g>
</g>
<!-- openapiObject&#45;&gt;pathsObject -->
<g id="edge3" class="edge">
<title>openapiObject:paths&#45;&gt;pathsObject:header</title>
<path fill="none" stroke="black" d="M119.12,-246.88C138.96,-246.88 143.46,-232.07 157.78,-226.75"/>
<polygon fill="black" stroke="black" points="158.11,-230.25 167.38,-225.13 156.94,-223.34 158.11,-230.25"/>
</g>
<!-- securityRequirementObject -->
<g id="node5" class="node">
<title>securityRequirementObject</title>
<g id="a_node5"><a xlink:href="https://spec.openapis.org/oas/v3.1.0#securityRequirementObject" xlink:title="Click to jump to the specification of this object" target="_blank">
<polygon fill="#94d60a" stroke="none" points="668.25,-277.5 668.25,-299.25 861,-299.25 861,-277.5 668.25,-277.5"/>
<polygon fill="none" stroke="black" points="668.25,-277.5 668.25,-299.25 861,-299.25 861,-277.5 668.25,-277.5"/>
<text text-anchor="start" x="671.25" y="-283.95" font-family="arial" font-weight="bold" font-size="14.00">Security Requirement Object</text>
<polygon fill="#6ca437" stroke="none" points="668.25,-256.5 668.25,-277.5 861,-277.5 861,-256.5 668.25,-256.5"/>
<polygon fill="none" stroke="black" points="668.25,-256.5 668.25,-277.5 861,-277.5 861,-256.5 668.25,-256.5"/>
<text text-anchor="start" x="748.12" y="-261.2" font-family="monospace" font-size="14.00">name</text>
</a>
</g>
</g>
<!-- openapiObject&#45;&gt;securityRequirementObject -->
<g id="edge2" class="edge">
<title>openapiObject:security&#45;&gt;securityRequirementObject:name</title>
<path fill="none" stroke="black" d="M119.12,-267.88C359.09,-267.88 421.9,-266.91 656.33,-266.88"/>
<polygon fill="black" stroke="black" points="656.11,-270.38 666.11,-266.88 656.11,-263.38 656.11,-270.38"/>
</g>
<!-- componentsObject -->
<g id="node6" class="node">
<title>componentsObject</title>
<g id="a_node6"><a xlink:href="https://spec.openapis.org/oas/v3.1.0#componentsObject" xlink:title="Click to jump to the specification of this object" target="_blank">
<polygon fill="#94d60a" stroke="none" points="311.5,-404.5 311.5,-426.25 447.25,-426.25 447.25,-404.5 311.5,-404.5"/>
<polygon fill="none" stroke="black" points="311.5,-404.5 311.5,-426.25 447.25,-426.25 447.25,-404.5 311.5,-404.5"/>
<text text-anchor="start" x="314.5" y="-410.95" font-family="arial" font-weight="bold" font-size="14.00">Components Object</text>
<polygon fill="#6ca437" stroke="none" points="311.5,-383.5 311.5,-404.5 447.25,-404.5 447.25,-383.5 311.5,-383.5"/>
<polygon fill="none" stroke="black" points="311.5,-383.5 311.5,-404.5 447.25,-404.5 447.25,-383.5 311.5,-383.5"/>
<text text-anchor="start" x="350.5" y="-388.2" font-family="monospace" font-size="14.00">schemas</text>
<polygon fill="#6ca437" stroke="none" points="311.5,-362.5 311.5,-383.5 447.25,-383.5 447.25,-362.5 311.5,-362.5"/>
<polygon fill="none" stroke="black" points="311.5,-362.5 311.5,-383.5 447.25,-383.5 447.25,-362.5 311.5,-362.5"/>
<text text-anchor="start" x="342.25" y="-367.2" font-family="monospace" font-size="14.00">responses</text>
<polygon fill="#6ca437" stroke="none" points="311.5,-341.5 311.5,-362.5 447.25,-362.5 447.25,-341.5 311.5,-341.5"/>
<polygon fill="none" stroke="black" points="311.5,-341.5 311.5,-362.5 447.25,-362.5 447.25,-341.5 311.5,-341.5"/>
<text text-anchor="start" x="338.12" y="-346.2" font-family="monospace" font-size="14.00">parameters</text>
<polygon fill="#6ca437" stroke="none" points="311.5,-320.5 311.5,-341.5 447.25,-341.5 447.25,-320.5 311.5,-320.5"/>
<polygon fill="none" stroke="black" points="311.5,-320.5 311.5,-341.5 447.25,-341.5 447.25,-320.5 311.5,-320.5"/>
<text text-anchor="start" x="317.5" y="-325.2" font-family="monospace" font-size="14.00">securitySchemes</text>
<polygon fill="#6ca437" stroke="none" points="311.5,-299.5 311.5,-320.5 447.25,-320.5 447.25,-299.5 311.5,-299.5"/>
<polygon fill="none" stroke="black" points="311.5,-299.5 311.5,-320.5 447.25,-320.5 447.25,-299.5 311.5,-299.5"/>
<text text-anchor="start" x="375.25" y="-304.2" font-family="monospace" font-size="14.00">…</text>
</a>
</g>
</g>
<!-- openapiObject&#45;&gt;componentsObject -->
<g id="edge1" class="edge">
<title>openapiObject:components&#45;&gt;componentsObject:header</title>
<path fill="none" stroke="black" d="M119.12,-288.88C217.17,-288.88 209.17,-406.15 298.93,-415.31"/>
<polygon fill="black" stroke="black" points="298.7,-418.8 308.86,-415.8 299.05,-411.81 298.7,-418.8"/>
</g>
<!-- pathItemObject -->
<g id="node3" class="node">
<title>pathItemObject</title>
<g id="a_node3"><a xlink:href="https://spec.openapis.org/oas/v3.1.0#pathItemObject" xlink:title="Click to jump to the specification of this object" target="_blank">
<polygon fill="#939598" stroke="none" points="322.38,-183 322.38,-204.75 436.38,-204.75 436.38,-183 322.38,-183"/>
<polygon fill="none" stroke="black" points="322.38,-183 322.38,-204.75 436.38,-204.75 436.38,-183 322.38,-183"/>
<text text-anchor="start" x="325.38" y="-189.45" font-family="arial" font-weight="bold" font-size="14.00">Path Item Object</text>
<polygon fill="#6d6e71" stroke="none" points="322.38,-162 322.38,-183 436.38,-183 436.38,-162 322.38,-162"/>
<polygon fill="none" stroke="black" points="322.38,-162 322.38,-183 436.38,-183 436.38,-162 322.38,-162"/>
<text text-anchor="start" x="354.62" y="-166.7" font-family="monospace" font-size="14.00">delete</text>
<polygon fill="#6d6e71" stroke="none" points="322.38,-141 322.38,-162 436.38,-162 436.38,-141 322.38,-141"/>
<polygon fill="none" stroke="black" points="322.38,-141 322.38,-162 436.38,-162 436.38,-141 322.38,-141"/>
<text text-anchor="start" x="367" y="-145.7" font-family="monospace" font-size="14.00">get</text>
<polygon fill="#6d6e71" stroke="none" points="322.38,-120 322.38,-141 436.38,-141 436.38,-120 322.38,-120"/>
<polygon fill="none" stroke="black" points="322.38,-120 322.38,-141 436.38,-141 436.38,-120 322.38,-120"/>
<text text-anchor="start" x="358.75" y="-124.7" font-family="monospace" font-size="14.00">patch</text>
<polygon fill="#6d6e71" stroke="none" points="322.38,-99 322.38,-120 436.38,-120 436.38,-99 322.38,-99"/>
<polygon fill="none" stroke="black" points="322.38,-99 322.38,-120 436.38,-120 436.38,-99 322.38,-99"/>
<text text-anchor="start" x="362.88" y="-103.7" font-family="monospace" font-size="14.00">post</text>
<polygon fill="#6d6e71" stroke="none" points="322.38,-78 322.38,-99 436.38,-99 436.38,-78 322.38,-78"/>
<polygon fill="none" stroke="black" points="322.38,-78 322.38,-99 436.38,-99 436.38,-78 322.38,-78"/>
<text text-anchor="start" x="367" y="-82.7" font-family="monospace" font-size="14.00">put</text>
<polygon fill="#6d6e71" stroke="none" points="322.38,-57 322.38,-78 436.38,-78 436.38,-57 322.38,-57"/>
<polygon fill="none" stroke="black" points="322.38,-57 322.38,-78 436.38,-78 436.38,-57 322.38,-57"/>
<text text-anchor="start" x="375.25" y="-61.7" font-family="monospace" font-size="14.00">…</text>
</a>
</g>
</g>
<!-- pathsObject&#45;&gt;pathItemObject -->
<g id="edge4" class="edge">
<title>pathsObject:endpoint1&#45;&gt;pathItemObject:header</title>
<path fill="none" stroke="black" d="M260.88,-203.88C283.87,-203.88 291.73,-196.76 309.99,-194.53"/>
<polygon fill="black" stroke="black" points="310.08,-198.03 319.86,-193.96 309.68,-191.04 310.08,-198.03"/>
</g>
<!-- pathsObject&#45;&gt;pathItemObject -->
<g id="edge5" class="edge">
<title>pathsObject:endpoint2&#45;&gt;pathItemObject:header</title>
<path fill="none" stroke="black" d="M260.88,-182.88C283.93,-182.88 291.7,-190.71 309.97,-193.15"/>
<polygon fill="black" stroke="black" points="309.66,-196.64 319.86,-193.78 310.11,-189.65 309.66,-196.64"/>
</g>
<!-- pathsObject&#45;&gt;pathItemObject -->
<g id="edge6" class="edge">
<title>pathsObject:endpoint3&#45;&gt;pathItemObject:header</title>
<path fill="none" stroke="black" d="M260.88,-161.88C287.02,-161.88 290.44,-185.51 310.2,-192.15"/>
<polygon fill="black" stroke="black" points="309.46,-195.58 319.88,-193.64 310.53,-188.66 309.46,-195.58"/>
</g>
<!-- operationObject -->
<g id="node4" class="node">
<title>operationObject</title>
<g id="a_node4"><a xlink:href="https://spec.openapis.org/oas/v3.1.0#operationObject" xlink:title="Click to jump to the specification of this object" target="_blank">
<polygon fill="#94d60a" stroke="none" points="499.25,-131 499.25,-152.75 616.25,-152.75 616.25,-131 499.25,-131"/>
<polygon fill="none" stroke="black" points="499.25,-131 499.25,-152.75 616.25,-152.75 616.25,-131 499.25,-131"/>
<text text-anchor="start" x="502.25" y="-137.45" font-family="arial" font-weight="bold" font-size="14.00">Operation Object</text>
<polygon fill="#6ca437" stroke="none" points="499.25,-110 499.25,-131 616.25,-131 616.25,-110 499.25,-110"/>
<polygon fill="none" stroke="black" points="499.25,-110 499.25,-131 616.25,-131 616.25,-110 499.25,-110"/>
<text text-anchor="start" x="524.75" y="-114.7" font-family="monospace" font-size="14.00">security</text>
<polygon fill="#6ca437" stroke="none" points="499.25,-89 499.25,-110 616.25,-110 616.25,-89 499.25,-89"/>
<polygon fill="none" stroke="black" points="499.25,-89 499.25,-110 616.25,-110 616.25,-89 499.25,-89"/>
<text text-anchor="start" x="553.62" y="-93.7" font-family="monospace" font-size="14.00">…</text>
</a>
</g>
</g>
<!-- pathItemObject&#45;&gt;operationObject -->
<g id="edge7" class="edge">
<title>pathItemObject:delete&#45;&gt;operationObject:header</title>
<path fill="none" stroke="black" d="M437.38,-172.88C463.18,-172.88 466.94,-150.19 486.38,-143.63"/>
<polygon fill="black" stroke="black" points="486.91,-147.09 496.25,-142.11 485.84,-140.17 486.91,-147.09"/>
</g>
<!-- pathItemObject&#45;&gt;operationObject -->
<g id="edge8" class="edge">
<title>pathItemObject:get&#45;&gt;operationObject:header</title>
<path fill="none" stroke="black" d="M437.38,-151.88C460.32,-151.88 468.17,-144.76 486.39,-142.53"/>
<polygon fill="black" stroke="black" points="486.46,-146.03 496.24,-141.96 486.05,-139.04 486.46,-146.03"/>
</g>
<!-- pathItemObject&#45;&gt;operationObject -->
<g id="edge9" class="edge">
<title>pathItemObject:patch&#45;&gt;operationObject:header</title>
<path fill="none" stroke="black" d="M437.38,-130.88C460.39,-130.88 468.13,-138.71 486.37,-141.15"/>
<polygon fill="black" stroke="black" points="486.04,-144.64 496.24,-141.78 486.48,-137.65 486.04,-144.64"/>
</g>
<!-- pathItemObject&#45;&gt;operationObject -->
<g id="edge10" class="edge">
<title>pathItemObject:post&#45;&gt;operationObject:header</title>
<path fill="none" stroke="black" d="M437.38,-109.88C463.47,-109.88 466.88,-133.51 486.59,-140.15"/>
<polygon fill="black" stroke="black" points="485.84,-143.58 496.25,-141.64 486.9,-136.66 485.84,-143.58"/>
</g>
<!-- pathItemObject&#45;&gt;operationObject -->
<g id="edge11" class="edge">
<title>pathItemObject:put&#45;&gt;operationObject:header</title>
<path fill="none" stroke="black" d="M437.38,-88.88C468.76,-88.88 464.03,-129.82 486.67,-139.73"/>
<polygon fill="black" stroke="black" points="485.78,-143.12 496.26,-141.59 487.11,-136.25 485.78,-143.12"/>
</g>
<!-- operationObject&#45;&gt;securityRequirementObject -->
<g id="edge12" class="edge">
<title>operationObject:security&#45;&gt;securityRequirementObject:name</title>
<path fill="none" stroke="black" d="M617.75,-120.88C682.03,-120.88 609.35,-249.2 656.52,-265.24"/>
<polygon fill="black" stroke="black" points="655.72,-268.66 666.13,-266.65 656.75,-261.73 655.72,-268.66"/>
</g>
<!-- securitySchemesMap -->
<g id="node7" class="node">
<title>securitySchemesMap</title>
<g id="a_node7"><a xlink:href="https://spec.openapis.org/oas/v3.1.0#securitySchemeObject" xlink:title="Click to jump to the specification of this object" target="_blank">
<polygon fill="#94d60a" stroke="none" points="913,-288 913,-309.75 1067.5,-309.75 1067.5,-288 913,-288"/>
<polygon fill="none" stroke="black" points="913,-288 913,-309.75 1067.5,-309.75 1067.5,-288 913,-288"/>
<text text-anchor="start" x="916" y="-294.45" font-family="arial" font-weight="bold" font-size="14.00">Security Schemes Map</text>
<polygon fill="#6ca437" stroke="none" points="913,-267 913,-288 1067.5,-288 1067.5,-267 913,-267"/>
<polygon fill="none" stroke="black" points="913,-267 913,-288 1067.5,-288 1067.5,-267 913,-267"/>
<text text-anchor="start" x="928.38" y="-271.7" font-family="monospace" font-size="14.00">securityScheme1</text>
<polygon fill="#6ca437" stroke="none" points="913,-246 913,-267 1067.5,-267 1067.5,-246 913,-246"/>
<polygon fill="none" stroke="black" points="913,-246 913,-267 1067.5,-267 1067.5,-246 913,-246"/>
<text text-anchor="start" x="928.38" y="-250.7" font-family="monospace" font-size="14.00">securityScheme2</text>
<polygon fill="#6ca437" stroke="none" points="913,-225 913,-246 1067.5,-246 1067.5,-225 913,-225"/>
<polygon fill="none" stroke="black" points="913,-225 913,-246 1067.5,-246 1067.5,-225 913,-225"/>
<text text-anchor="start" x="928.38" y="-229.7" font-family="monospace" font-size="14.00">securityScheme3</text>
<polygon fill="#6ca437" stroke="none" points="913,-204 913,-225 1067.5,-225 1067.5,-204 913,-204"/>
<polygon fill="none" stroke="black" points="913,-204 913,-225 1067.5,-225 1067.5,-204 913,-204"/>
<text text-anchor="start" x="986.12" y="-208.7" font-family="monospace" font-size="14.00">…</text>
</a>
</g>
</g>
<!-- securityRequirementObject&#45;&gt;securitySchemesMap -->
<g id="edge13" class="edge">
<title>securityRequirementObject:name&#45;&gt;securitySchemesMap:header</title>
<path fill="none" stroke="black" d="M861.62,-266.88C883.88,-266.88 885.7,-289.24 901.25,-296.57"/>
<polygon fill="black" stroke="black" points="900.26,-299.94 910.77,-298.57 901.7,-293.09 900.26,-299.94"/>
</g>
<!-- componentsObject&#45;&gt;securitySchemesMap -->
<g id="edge14" class="edge">
<title>componentsObject:securitySchemes&#45;&gt;securitySchemesMap:header</title>
<path fill="none" stroke="black" d="M448.38,-330.88C635.51,-330.88 684.52,-343.27 869,-311.88 884.46,-309.24 889.91,-302.79 901.13,-300.09"/>
<polygon fill="black" stroke="black" points="901.19,-303.61 910.75,-299.04 900.42,-296.65 901.19,-303.61"/>
</g>
<!-- securitySchemeObject -->
<g id="node8" class="node">
<title>securitySchemeObject</title>
<g id="a_node8"><a xlink:href="https://spec.openapis.org/oas/v3.1.0#securitySchemeObject" xlink:title="Click to jump to the specification of this object" target="_blank">
<polygon fill="#94d60a" stroke="none" points="1119.5,-246 1119.5,-267.75 1281.5,-267.75 1281.5,-246 1119.5,-246"/>
<polygon fill="none" stroke="black" points="1119.5,-246 1119.5,-267.75 1281.5,-267.75 1281.5,-246 1119.5,-246"/>
<text text-anchor="start" x="1122.5" y="-252.45" font-family="arial" font-weight="bold" font-size="14.00">Security Scheme Object</text>
<polygon fill="#6ca437" stroke="none" points="1119.5,-225 1119.5,-246 1281.5,-246 1281.5,-225 1119.5,-225"/>
<polygon fill="none" stroke="black" points="1119.5,-225 1119.5,-246 1281.5,-246 1281.5,-225 1119.5,-225"/>
<text text-anchor="start" x="1184" y="-229.7" font-family="monospace" font-size="14.00">type</text>
<polygon fill="#6ca437" stroke="none" points="1119.5,-204 1119.5,-225 1281.5,-225 1281.5,-204 1119.5,-204"/>
<polygon fill="none" stroke="black" points="1119.5,-204 1119.5,-225 1281.5,-225 1281.5,-204 1119.5,-204"/>
<text text-anchor="start" x="1155.12" y="-208.7" font-family="monospace" font-size="14.00">description</text>
<polygon fill="#6ca437" stroke="none" points="1119.5,-183 1119.5,-204 1281.5,-204 1281.5,-183 1119.5,-183"/>
<polygon fill="none" stroke="black" points="1119.5,-183 1119.5,-204 1281.5,-204 1281.5,-183 1119.5,-183"/>
<text text-anchor="start" x="1184" y="-187.7" font-family="monospace" font-size="14.00">name</text>
<polygon fill="#6ca437" stroke="none" points="1119.5,-162 1119.5,-183 1281.5,-183 1281.5,-162 1119.5,-162"/>
<polygon fill="none" stroke="black" points="1119.5,-162 1119.5,-183 1281.5,-183 1281.5,-162 1119.5,-162"/>
<text text-anchor="start" x="1192.25" y="-166.7" font-family="monospace" font-size="14.00">in</text>
<polygon fill="#6ca437" stroke="none" points="1119.5,-141 1119.5,-162 1281.5,-162 1281.5,-141 1119.5,-141"/>
<polygon fill="none" stroke="black" points="1119.5,-141 1119.5,-162 1281.5,-162 1281.5,-141 1119.5,-141"/>
<text text-anchor="start" x="1179.88" y="-145.7" font-family="monospace" font-size="14.00">flows</text>
<polygon fill="#6ca437" stroke="none" points="1119.5,-120 1119.5,-141 1281.5,-141 1281.5,-120 1119.5,-120"/>
<polygon fill="none" stroke="black" points="1119.5,-120 1119.5,-141 1281.5,-141 1281.5,-120 1119.5,-120"/>
<text text-anchor="start" x="1196.38" y="-124.7" font-family="monospace" font-size="14.00">…</text>
</a>
</g>
</g>
<!-- securitySchemesMap&#45;&gt;securitySchemeObject -->
<g id="edge15" class="edge">
<title>securitySchemesMap:securityScheme1&#45;&gt;securitySchemeObject:header</title>
<path fill="none" stroke="black" d="M1068.25,-277.88C1088.11,-277.88 1092.91,-263.74 1107.36,-258.67"/>
<polygon fill="black" stroke="black" points="1107.69,-262.16 1117.01,-257.12 1106.58,-255.25 1107.69,-262.16"/>
</g>
<!-- securitySchemesMap&#45;&gt;securitySchemeObject -->
<g id="edge16" class="edge">
<title>securitySchemesMap:securityScheme2&#45;&gt;securitySchemeObject:header</title>
<path fill="none" stroke="black" d="M1068.25,-256.88C1086.22,-256.88 1093.35,-256.88 1107.08,-256.88"/>
<polygon fill="black" stroke="black" points="1106.99,-260.38 1116.99,-256.88 1106.99,-253.38 1106.99,-260.38"/>
</g>
<!-- securitySchemesMap&#45;&gt;securitySchemeObject -->
<g id="edge17" class="edge">
<title>securitySchemesMap:securityScheme3&#45;&gt;securitySchemeObject:header</title>
<path fill="none" stroke="black" d="M1068.25,-235.88C1088.11,-235.88 1092.91,-250.01 1107.36,-255.08"/>
<polygon fill="black" stroke="black" points="1106.58,-258.5 1117.01,-256.63 1107.69,-251.59 1106.58,-258.5"/>
</g>
<!-- oauthFlowsObject -->
<g id="node9" class="node">
<title>oauthFlowsObject</title>
<g id="a_node9"><a xlink:href="https://spec.openapis.org/oas/v3.1.0#oauthFlowsObject" xlink:title="Click to jump to the specification of this object" target="_blank">
<polygon fill="#94d60a" stroke="none" points="1333.5,-141 1333.5,-162.75 1479.75,-162.75 1479.75,-141 1333.5,-141"/>
<polygon fill="none" stroke="black" points="1333.5,-141 1333.5,-162.75 1479.75,-162.75 1479.75,-141 1333.5,-141"/>
<text text-anchor="start" x="1341" y="-147.45" font-family="arial" font-weight="bold" font-size="14.00">OAuth Flows Object</text>
<polygon fill="#6ca437" stroke="none" points="1333.5,-120 1333.5,-141 1479.75,-141 1479.75,-120 1333.5,-120"/>
<polygon fill="none" stroke="black" points="1333.5,-120 1333.5,-141 1479.75,-141 1479.75,-120 1333.5,-120"/>
<text text-anchor="start" x="1373.62" y="-124.7" font-family="monospace" font-size="14.00">implicit</text>
<polygon fill="#6ca437" stroke="none" points="1333.5,-99 1333.5,-120 1479.75,-120 1479.75,-99 1333.5,-99"/>
<polygon fill="none" stroke="black" points="1333.5,-99 1333.5,-120 1479.75,-120 1479.75,-99 1333.5,-99"/>
<text text-anchor="start" x="1373.62" y="-103.7" font-family="monospace" font-size="14.00">password</text>
<polygon fill="#6ca437" stroke="none" points="1333.5,-78 1333.5,-99 1479.75,-99 1479.75,-78 1333.5,-78"/>
<polygon fill="none" stroke="black" points="1333.5,-78 1333.5,-99 1479.75,-99 1479.75,-78 1333.5,-78"/>
<text text-anchor="start" x="1336.5" y="-82.7" font-family="monospace" font-size="14.00">clientCredentials</text>
<polygon fill="#6ca437" stroke="none" points="1333.5,-57 1333.5,-78 1479.75,-78 1479.75,-57 1333.5,-57"/>
<polygon fill="none" stroke="black" points="1333.5,-57 1333.5,-78 1479.75,-78 1479.75,-57 1333.5,-57"/>
<text text-anchor="start" x="1336.5" y="-61.7" font-family="monospace" font-size="14.00">authorizationCode</text>
</a>
</g>
</g>
<!-- securitySchemeObject&#45;&gt;oauthFlowsObject -->
<g id="edge18" class="edge">
<title>securitySchemeObject:flows&#45;&gt;oauthFlowsObject:header</title>
<path fill="none" stroke="black" d="M1282.5,-151.88C1300.43,-151.88 1307.53,-151.88 1321.23,-151.88"/>
<polygon fill="black" stroke="black" points="1321.11,-155.38 1331.11,-151.88 1321.11,-148.38 1321.11,-155.38"/>
</g>
<!-- oauthFlowObject -->
<g id="node10" class="node">
<title>oauthFlowObject</title>
<g id="a_node10"><a xlink:href="https://spec.openapis.org/oas/v3.1.0#oauthFlowObject" xlink:title="Click to jump to the specification of this object" target="_blank">
<polygon fill="#94d60a" stroke="none" points="1531.75,-88 1531.75,-109.75 1669.75,-109.75 1669.75,-88 1531.75,-88"/>
<polygon fill="none" stroke="black" points="1531.75,-88 1531.75,-109.75 1669.75,-109.75 1669.75,-88 1531.75,-88"/>
<text text-anchor="start" x="1538.88" y="-94.45" font-family="arial" font-weight="bold" font-size="14.00">OAuth Flow Object</text>
<polygon fill="#6ca437" stroke="none" points="1531.75,-67 1531.75,-88 1669.75,-88 1669.75,-67 1531.75,-67"/>
<polygon fill="none" stroke="black" points="1531.75,-67 1531.75,-88 1669.75,-88 1669.75,-67 1531.75,-67"/>
<text text-anchor="start" x="1534.75" y="-71.7" font-family="monospace" font-size="14.00">authorizationUrl</text>
<polygon fill="#6ca437" stroke="none" points="1531.75,-46 1531.75,-67 1669.75,-67 1669.75,-46 1531.75,-46"/>
<polygon fill="none" stroke="black" points="1531.75,-46 1531.75,-67 1669.75,-67 1669.75,-46 1531.75,-46"/>
<text text-anchor="start" x="1567.75" y="-50.7" font-family="monospace" font-size="14.00">tokenUrl</text>
<polygon fill="#6ca437" stroke="none" points="1531.75,-25 1531.75,-46 1669.75,-46 1669.75,-25 1531.75,-25"/>
<polygon fill="none" stroke="black" points="1531.75,-25 1531.75,-46 1669.75,-46 1669.75,-25 1531.75,-25"/>
<text text-anchor="start" x="1559.5" y="-29.7" font-family="monospace" font-size="14.00">refreshUrl</text>
<polygon fill="#6ca437" stroke="none" points="1531.75,-4 1531.75,-25 1669.75,-25 1669.75,-4 1531.75,-4"/>
<polygon fill="none" stroke="black" points="1531.75,-4 1531.75,-25 1669.75,-25 1669.75,-4 1531.75,-4"/>
<text text-anchor="start" x="1576" y="-8.7" font-family="monospace" font-size="14.00">scopes</text>
</a>
</g>
</g>
<!-- oauthFlowsObject&#45;&gt;oauthFlowObject -->
<g id="edge19" class="edge">
<title>oauthFlowsObject:implicit&#45;&gt;oauthFlowObject:header</title>
<path fill="none" stroke="black" d="M1480.62,-130.88C1502.72,-130.88 1504.43,-108.51 1519.84,-101.18"/>
<polygon fill="black" stroke="black" points="1520.21,-104.68 1529.27,-99.19 1518.76,-97.83 1520.21,-104.68"/>
</g>
<!-- oauthFlowsObject&#45;&gt;oauthFlowObject -->
<g id="edge20" class="edge">
<title>oauthFlowsObject:password&#45;&gt;oauthFlowObject:header</title>
<path fill="none" stroke="black" d="M1480.62,-109.88C1499.16,-109.88 1505.61,-102.61 1519.61,-99.89"/>
<polygon fill="black" stroke="black" points="1519.6,-103.41 1529.24,-99.01 1518.97,-96.43 1519.6,-103.41"/>
</g>
<!-- oauthFlowsObject&#45;&gt;oauthFlowObject -->
<g id="edge21" class="edge">
<title>oauthFlowsObject:clientCredentials&#45;&gt;oauthFlowObject:header</title>
<path fill="none" stroke="black" d="M1480.62,-88.88C1499.08,-88.88 1505.64,-95.48 1519.64,-97.95"/>
<polygon fill="black" stroke="black" points="1518.99,-101.41 1529.24,-98.75 1519.57,-94.43 1518.99,-101.41"/>
</g>
<!-- oauthFlowsObject&#45;&gt;oauthFlowObject -->
<g id="edge22" class="edge">
<title>oauthFlowsObject:authorizationCode&#45;&gt;oauthFlowObject:header</title>
<path fill="none" stroke="black" d="M1480.62,-67.88C1502.52,-67.88 1504.53,-89.54 1519.9,-96.65"/>
<polygon fill="black" stroke="black" points="1518.77,-99.99 1529.27,-98.57 1520.18,-93.13 1518.77,-99.99"/>
</g>
</g>
</svg>
