<?xml version="1.0" encoding="UTF-8" standalone="no"?>
<!DOCTYPE svg PUBLIC "-//W3C//DTD SVG 1.1//EN"
 "http://www.w3.org/Graphics/SVG/1.1/DTD/svg11.dtd">
<!-- Generated by graphviz version 2.44.1 (20200629.0800)
 -->
<!-- Title: serverObject Pages: 1 -->
<svg width="728pt" height="482pt"
 viewBox="0.00 0.00 728.00 482.00" xmlns="http://www.w3.org/2000/svg" xmlns:xlink="http://www.w3.org/1999/xlink">
<g id="graph0" class="graph" transform="scale(1 1) rotate(0) translate(4 478)">
<title>serverObject</title>
<polygon fill="white" stroke="transparent" points="-4,4 -4,-478 724,-478 724,4 -4,4"/>
<g id="clust2" class="cluster">
<title>clusterOwnObjects</title>
<g id="a_clust2"><a xlink:title="serverObject">
<polygon fill="white" stroke="transparent" points="183,-8 183,-223 712,-223 712,-8 183,-8"/>
</a>
</g>
</g>
<g id="clust1" class="cluster">
<title>clusterOtherObjects</title>
<g id="a_clust1"><a xlink:title="serverObject">
<polygon fill="white" stroke="transparent" points="8,-231 8,-466 692.5,-466 692.5,-231 8,-231"/>
</a>
</g>
</g>
<!-- openapiObject -->
<g id="node1" class="node">
<title>openapiObject</title>
<g id="a_node1"><a xlink:href="https://spec.openapis.org/oas/v3.1.0#oasObject" xlink:title="Click to jump to the specification of this object" target="_blank">
<polygon fill="#939598" stroke="transparent" points="24,-348 24,-369 140,-369 140,-348 24,-348"/>
<polygon fill="none" stroke="black" points="24,-348 24,-369 140,-369 140,-348 24,-348"/>
<text text-anchor="start" x="27" y="-355.8" font-family="arial" font-weight="bold" font-size="14.00">OpenAPI Object</text>
<polygon fill="#6d6e71" stroke="transparent" points="24,-327 24,-348 140,-348 140,-327 24,-327"/>
<polygon fill="none" stroke="black" points="24,-327 24,-348 140,-348 140,-327 24,-327"/>
<text text-anchor="start" x="53" y="-333.8" font-family="monospace" font-size="14.00">openapi</text>
<polygon fill="#6d6e71" stroke="transparent" points="24,-306 24,-327 140,-327 140,-306 24,-306"/>
<polygon fill="none" stroke="black" points="24,-306 24,-327 140,-327 140,-306 24,-306"/>
<text text-anchor="start" x="65" y="-312.8" font-family="monospace" font-size="14.00">info</text>
<polygon fill="#6d6e71" stroke="transparent" points="24,-285 24,-306 140,-306 140,-285 24,-285"/>
<polygon fill="none" stroke="black" points="24,-285 24,-306 140,-306 140,-285 24,-285"/>
<text text-anchor="start" x="61" y="-291.8" font-family="monospace" font-size="14.00">paths</text>
<polygon fill="#6d6e71" stroke="transparent" points="24,-264 24,-285 140,-285 140,-264 24,-264"/>
<polygon fill="none" stroke="black" points="24,-264 24,-285 140,-285 140,-264 24,-264"/>
<text text-anchor="start" x="53" y="-270.8" font-family="monospace" font-size="14.00">servers</text>
<polygon fill="#6d6e71" stroke="transparent" points="24,-243 24,-264 140,-264 140,-243 24,-243"/>
<polygon fill="none" stroke="black" points="24,-243 24,-264 140,-264 140,-243 24,-243"/>
<text text-anchor="start" x="77.5" y="-249.8" font-family="monospace" font-size="14.00">…</text>
</a>
</g>
</g>
<!-- pathsObject -->
<g id="node2" class="node">
<title>pathsObject</title>
<g id="a_node2"><a xlink:href="https://spec.openapis.org/oas/v3.1.0#pathsObject" xlink:title="Click to jump to the specification of this object" target="_blank">
<polygon fill="#939598" stroke="transparent" points="203,-432 203,-453 298,-453 298,-432 203,-432"/>
<polygon fill="none" stroke="black" points="203,-432 203,-453 298,-453 298,-432 203,-432"/>
<text text-anchor="start" x="206" y="-439.8" font-family="arial" font-weight="bold" font-size="14.00">Paths Object</text>
<polygon fill="#6d6e71" stroke="transparent" points="203,-411 203,-432 298,-432 298,-411 203,-411"/>
<polygon fill="none" stroke="black" points="203,-411 203,-432 298,-432 298,-411 203,-411"/>
<text text-anchor="start" x="209" y="-417.8" font-family="monospace" font-size="14.00">/endpoint1</text>
<polygon fill="#6d6e71" stroke="transparent" points="203,-390 203,-411 298,-411 298,-390 203,-390"/>
<polygon fill="none" stroke="black" points="203,-390 203,-411 298,-411 298,-390 203,-390"/>
<text text-anchor="start" x="209" y="-396.8" font-family="monospace" font-size="14.00">/endpoint2</text>
<polygon fill="#6d6e71" stroke="transparent" points="203,-369 203,-390 298,-390 298,-369 203,-369"/>
<polygon fill="none" stroke="black" points="203,-369 203,-390 298,-390 298,-369 203,-369"/>
<text text-anchor="start" x="209" y="-375.8" font-family="monospace" font-size="14.00">/endpoint3</text>
<polygon fill="#6d6e71" stroke="transparent" points="203,-348 203,-369 298,-369 298,-348 203,-348"/>
<polygon fill="none" stroke="black" points="203,-348 203,-369 298,-369 298,-348 203,-348"/>
<text text-anchor="start" x="246" y="-354.8" font-family="monospace" font-size="14.00">…</text>
</a>
</g>
</g>
<!-- openapiObject&#45;&gt;pathsObject -->
<g id="edge2" class="edge">
<title>openapiObject:paths&#45;&gt;pathsObject:header</title>
<path fill="none" stroke="black" d="M141,-295C208.39,-295 139,-427.8 191.97,-441.81"/>
<polygon fill="black" stroke="black" points="191.66,-445.3 202,-443 192.48,-438.34 191.66,-445.3"/>
</g>
<!-- serverObject -->
<g id="node5" class="node">
<title>serverObject</title>
<g id="a_node5"><a xlink:href="https://spec.openapis.org/oas/v3.1.0#serverObject" xlink:title="Click to jump to the specification of this object" target="_blank">
<polygon fill="#94d60a" stroke="transparent" points="199,-189 199,-210 301,-210 301,-189 199,-189"/>
<polygon fill="none" stroke="black" points="199,-189 199,-210 301,-210 301,-189 199,-189"/>
<text text-anchor="start" x="202" y="-196.8" font-family="arial" font-weight="bold" font-size="14.00">Server Object</text>
<polygon fill="#6ca437" stroke="transparent" points="199,-168 199,-189 301,-189 301,-168 199,-168"/>
<polygon fill="none" stroke="black" points="199,-168 199,-189 301,-189 301,-168 199,-168"/>
<text text-anchor="start" x="237.5" y="-174.8" font-family="monospace" font-size="14.00">url</text>
<polygon fill="#6ca437" stroke="transparent" points="199,-147 199,-168 301,-168 301,-147 199,-147"/>
<polygon fill="none" stroke="black" points="199,-147 199,-168 301,-168 301,-147 199,-147"/>
<text text-anchor="start" x="204.5" y="-153.8" font-family="monospace" font-size="14.00">description</text>
<polygon fill="#6ca437" stroke="transparent" points="199,-126 199,-147 301,-147 301,-126 199,-126"/>
<polygon fill="none" stroke="black" points="199,-126 199,-147 301,-147 301,-126 199,-126"/>
<text text-anchor="start" x="212.5" y="-132.8" font-family="monospace" font-size="14.00">variables</text>
<polygon fill="#6ca437" stroke="transparent" points="199,-105 199,-126 301,-126 301,-105 199,-105"/>
<polygon fill="none" stroke="black" points="199,-105 199,-126 301,-126 301,-105 199,-105"/>
<text text-anchor="start" x="245.5" y="-111.8" font-family="monospace" font-size="14.00">…</text>
</a>
</g>
</g>
<!-- openapiObject&#45;&gt;serverObject -->
<g id="edge1" class="edge">
<title>openapiObject:servers&#45;&gt;serverObject:n</title>
<path fill="none" stroke="black" d="M141,-274C169.01,-274 158.94,-241.35 183,-227 205.39,-213.64 238.23,-233.63 247.49,-220.96"/>
<polygon fill="black" stroke="black" points="250.95,-221.55 250,-211 244.16,-219.84 250.95,-221.55"/>
<text text-anchor="middle" x="169.5" y="-251.8" font-family="Times New Roman,serif" font-size="14.00">*</text>
</g>
<!-- pathItemObject -->
<g id="node3" class="node">
<title>pathItemObject</title>
<g id="a_node3"><a xlink:href="https://spec.openapis.org/oas/v3.1.0#pathItemObject" xlink:title="Click to jump to the specification of this object" target="_blank">
<polygon fill="#939598" stroke="transparent" points="360,-411 360,-432 480,-432 480,-411 360,-411"/>
<polygon fill="none" stroke="black" points="360,-411 360,-432 480,-432 480,-411 360,-411"/>
<text text-anchor="start" x="363" y="-418.8" font-family="arial" font-weight="bold" font-size="14.00">Path Item Object</text>
<polygon fill="#6d6e71" stroke="transparent" points="360,-390 360,-411 480,-411 480,-390 360,-390"/>
<polygon fill="none" stroke="black" points="360,-390 360,-411 480,-411 480,-390 360,-390"/>
<text text-anchor="start" x="407.5" y="-396.8" font-family="monospace" font-size="14.00">get</text>
<polygon fill="#6d6e71" stroke="transparent" points="360,-369 360,-390 480,-390 480,-369 360,-369"/>
<polygon fill="none" stroke="black" points="360,-369 360,-390 480,-390 480,-369 360,-369"/>
<text text-anchor="start" x="407.5" y="-375.8" font-family="monospace" font-size="14.00">put</text>
<polygon fill="#6d6e71" stroke="transparent" points="360,-348 360,-369 480,-369 480,-348 360,-348"/>
<polygon fill="none" stroke="black" points="360,-348 360,-369 480,-369 480,-348 360,-348"/>
<text text-anchor="start" x="403" y="-354.8" font-family="monospace" font-size="14.00">post</text>
<polygon fill="#6d6e71" stroke="transparent" points="360,-327 360,-348 480,-348 480,-327 360,-327"/>
<polygon fill="none" stroke="black" points="360,-327 360,-348 480,-348 480,-327 360,-327"/>
<text text-anchor="start" x="395" y="-333.8" font-family="monospace" font-size="14.00">delete</text>
<polygon fill="#6d6e71" stroke="transparent" points="360,-306 360,-327 480,-327 480,-306 360,-306"/>
<polygon fill="none" stroke="black" points="360,-306 360,-327 480,-327 480,-306 360,-306"/>
<text text-anchor="start" x="391" y="-312.8" font-family="monospace" font-size="14.00">servers</text>
<polygon fill="#6d6e71" stroke="transparent" points="360,-285 360,-306 480,-306 480,-285 360,-285"/>
<polygon fill="none" stroke="black" points="360,-285 360,-306 480,-306 480,-285 360,-285"/>
<text text-anchor="start" x="415.5" y="-291.8" font-family="monospace" font-size="14.00">…</text>
</a>
</g>
</g>
<!-- pathsObject&#45;&gt;pathItemObject -->
<g id="edge3" class="edge">
<title>pathsObject:endpoint1&#45;&gt;pathItemObject:header</title>
<path fill="none" stroke="black" d="M299,-422C321.92,-422 330.06,-422 348.83,-422"/>
<polygon fill="black" stroke="black" points="349,-425.5 359,-422 349,-418.5 349,-425.5"/>
</g>
<!-- pathsObject&#45;&gt;pathItemObject -->
<g id="edge4" class="edge">
<title>pathsObject:endpoint2&#45;&gt;pathItemObject:header</title>
<path fill="none" stroke="black" d="M299,-400C323.63,-400 329.3,-416.54 348.9,-420.94"/>
<polygon fill="black" stroke="black" points="348.69,-424.44 359,-422 349.42,-417.47 348.69,-424.44"/>
</g>
<!-- pathsObject&#45;&gt;pathItemObject -->
<g id="edge5" class="edge">
<title>pathsObject:endpoint3&#45;&gt;pathItemObject:header</title>
<path fill="none" stroke="black" d="M299,-379C305.47,-379 333.98,-405.77 349.75,-417.07"/>
<polygon fill="black" stroke="black" points="348.53,-420.38 359,-422 351.82,-414.21 348.53,-420.38"/>
</g>
<!-- operationObject -->
<g id="node4" class="node">
<title>operationObject</title>
<g id="a_node4"><a xlink:href="https://spec.openapis.org/oas/v3.1.0#operationObject" xlink:title="Click to jump to the specification of this object" target="_blank">
<polygon fill="#939598" stroke="transparent" points="552.5,-390 552.5,-411 676.5,-411 676.5,-390 552.5,-390"/>
<polygon fill="none" stroke="black" points="552.5,-390 552.5,-411 676.5,-411 676.5,-390 552.5,-390"/>
<text text-anchor="start" x="555.5" y="-397.8" font-family="arial" font-weight="bold" font-size="14.00">Operation Object</text>
<polygon fill="#6d6e71" stroke="transparent" points="552.5,-369 552.5,-390 676.5,-390 676.5,-369 552.5,-369"/>
<polygon fill="none" stroke="black" points="552.5,-369 552.5,-390 676.5,-390 676.5,-369 552.5,-369"/>
<text text-anchor="start" x="585.5" y="-375.8" font-family="monospace" font-size="14.00">summary</text>
<polygon fill="#6d6e71" stroke="transparent" points="552.5,-348 552.5,-369 676.5,-369 676.5,-348 552.5,-348"/>
<polygon fill="none" stroke="black" points="552.5,-348 552.5,-369 676.5,-369 676.5,-348 552.5,-348"/>
<text text-anchor="start" x="569" y="-354.8" font-family="monospace" font-size="14.00">description</text>
<polygon fill="#6d6e71" stroke="transparent" points="552.5,-327 552.5,-348 676.5,-348 676.5,-327 552.5,-327"/>
<polygon fill="none" stroke="black" points="552.5,-327 552.5,-348 676.5,-348 676.5,-327 552.5,-327"/>
<text text-anchor="start" x="569" y="-333.8" font-family="monospace" font-size="14.00">requestBody</text>
<polygon fill="#6d6e71" stroke="transparent" points="552.5,-306 552.5,-327 676.5,-327 676.5,-306 552.5,-306"/>
<polygon fill="none" stroke="black" points="552.5,-306 552.5,-327 676.5,-327 676.5,-306 552.5,-306"/>
<text text-anchor="start" x="577" y="-312.8" font-family="monospace" font-size="14.00">responses</text>
<polygon fill="#6d6e71" stroke="transparent" points="552.5,-285 552.5,-306 676.5,-306 676.5,-285 552.5,-285"/>
<polygon fill="none" stroke="black" points="552.5,-285 552.5,-306 676.5,-306 676.5,-285 552.5,-285"/>
<text text-anchor="start" x="569" y="-291.8" font-family="monospace" font-size="14.00">operationId</text>
<polygon fill="#6d6e71" stroke="transparent" points="552.5,-264 552.5,-285 676.5,-285 676.5,-264 552.5,-264"/>
<polygon fill="none" stroke="black" points="552.5,-264 552.5,-285 676.5,-285 676.5,-264 552.5,-264"/>
<text text-anchor="start" x="585.5" y="-270.8" font-family="monospace" font-size="14.00">servers</text>
<polygon fill="#6d6e71" stroke="transparent" points="552.5,-243 552.5,-264 676.5,-264 676.5,-243 552.5,-243"/>
<polygon fill="none" stroke="black" points="552.5,-243 552.5,-264 676.5,-264 676.5,-243 552.5,-243"/>
<text text-anchor="start" x="610" y="-249.8" font-family="monospace" font-size="14.00">…</text>
</a>
</g>
</g>
<!-- pathItemObject&#45;&gt;operationObject -->
<g id="edge7" class="edge">
<title>pathItemObject:get&#45;&gt;operationObject:header</title>
<path fill="none" stroke="black" d="M481,-401C508.66,-401 518.01,-401 541.38,-401"/>
<polygon fill="black" stroke="black" points="541.5,-404.5 551.5,-401 541.5,-397.5 541.5,-404.5"/>
</g>
<!-- pathItemObject&#45;&gt;operationObject -->
<g id="edge8" class="edge">
<title>pathItemObject:put&#45;&gt;operationObject:header</title>
<path fill="none" stroke="black" d="M481,-380C509.99,-380 517.29,-396.51 541.37,-400.25"/>
<polygon fill="black" stroke="black" points="541.27,-403.75 551.5,-401 541.78,-396.77 541.27,-403.75"/>
</g>
<!-- pathItemObject&#45;&gt;operationObject -->
<g id="edge9" class="edge">
<title>pathItemObject:post&#45;&gt;operationObject:header</title>
<path fill="none" stroke="black" d="M481,-358C513.97,-358 514.98,-392.71 541.46,-399.76"/>
<polygon fill="black" stroke="black" points="541.15,-403.25 551.5,-401 542,-396.3 541.15,-403.25"/>
</g>
<!-- pathItemObject&#45;&gt;operationObject -->
<g id="edge10" class="edge">
<title>pathItemObject:delete&#45;&gt;operationObject:header</title>
<path fill="none" stroke="black" d="M481,-337C519.52,-337 511.27,-390.02 541.38,-399.54"/>
<polygon fill="black" stroke="black" points="541.1,-403.04 551.5,-401 542.1,-396.11 541.1,-403.04"/>
</g>
<!-- pathItemObject&#45;&gt;serverObject -->
<g id="edge6" class="edge">
<title>pathItemObject:e&#45;&gt;serverObject:n</title>
<path fill="none" stroke="black" d="M481,-316C496.34,-316 489.57,-293.49 480,-281.5 436.19,-226.61 389.5,-274.04 327,-242 317.73,-237.25 318.24,-231.81 309,-227 289.04,-216.61 261.68,-231.09 252.86,-220.94"/>
<polygon fill="black" stroke="black" points="256.13,-219.64 250,-211 249.4,-221.58 256.13,-219.64"/>
<text text-anchor="middle" x="330.5" y="-247.8" font-family="Times New Roman,serif" font-size="14.00">*</text>
</g>
<!-- operationObject&#45;&gt;serverObject -->
<g id="edge11" class="edge">
<title>operationObject:e&#45;&gt;serverObject:n</title>
<path fill="none" stroke="black" d="M677.5,-274C693.06,-274 687.3,-250.21 676.5,-239 661.44,-223.37 317.57,-232.76 258.57,-216.35"/>
<polygon fill="black" stroke="black" points="260.34,-213.33 250,-211 256.63,-219.26 260.34,-213.33"/>
<text text-anchor="middle" x="420" y="-231.8" font-family="Times New Roman,serif" font-size="14.00">*</text>
</g>
<!-- variablesMap -->
<g id="node6" class="node">
<title>variablesMap</title>
<g id="a_node6"><a xlink:href="https://spec.openapis.org/oas/v3.1.0#serverVariables" xlink:title="Click to jump to the specification of this object" target="_blank">
<polygon fill="#94d60a" stroke="transparent" points="367,-125 367,-146 473,-146 473,-125 367,-125"/>
<polygon fill="none" stroke="black" points="367,-125 367,-146 473,-146 473,-125 367,-125"/>
<text text-anchor="start" x="370" y="-132.8" font-family="arial" font-weight="bold" font-size="14.00">Variables Map</text>
<polygon fill="#6ca437" stroke="transparent" points="367,-104 367,-125 473,-125 473,-104 367,-104"/>
<polygon fill="none" stroke="black" points="367,-104 367,-125 473,-125 473,-104 367,-104"/>
<text text-anchor="start" x="382.5" y="-110.8" font-family="monospace" font-size="14.00">variable1</text>
<polygon fill="#6ca437" stroke="transparent" points="367,-83 367,-104 473,-104 473,-83 367,-83"/>
<polygon fill="none" stroke="black" points="367,-83 367,-104 473,-104 473,-83 367,-83"/>
<text text-anchor="start" x="382.5" y="-89.8" font-family="monospace" font-size="14.00">variable2</text>
<polygon fill="#6ca437" stroke="transparent" points="367,-62 367,-83 473,-83 473,-62 367,-62"/>
<polygon fill="none" stroke="black" points="367,-62 367,-83 473,-83 473,-62 367,-62"/>
<text text-anchor="start" x="382.5" y="-68.8" font-family="monospace" font-size="14.00">variable3</text>
<polygon fill="#6ca437" stroke="transparent" points="367,-41 367,-62 473,-62 473,-41 367,-41"/>
<polygon fill="none" stroke="black" points="367,-41 367,-62 473,-62 473,-41 367,-41"/>
<text text-anchor="start" x="415.5" y="-47.8" font-family="monospace" font-size="14.00">…</text>
</a>
</g>
</g>
<!-- serverObject&#45;&gt;variablesMap -->
<g id="edge12" class="edge">
<title>serverObject:variables&#45;&gt;variablesMap:header</title>
<path fill="none" stroke="black" d="M302,-136C326.78,-136 335.37,-136 355.97,-136"/>
<polygon fill="black" stroke="black" points="356,-139.5 366,-136 356,-132.5 356,-139.5"/>
</g>
<!-- serverVariableObject -->
<g id="node7" class="node">
<title>serverVariableObject</title>
<g id="a_node7"><a xlink:href="https://spec.openapis.org/oas/v3.1.0#serverVariableObject" xlink:title="Click to jump to the specification of this object" target="_blank">
<polygon fill="#94d60a" stroke="transparent" points="533.5,-104 533.5,-125 696.5,-125 696.5,-104 533.5,-104"/>
<polygon fill="none" stroke="black" points="533.5,-104 533.5,-125 696.5,-125 696.5,-104 533.5,-104"/>
<text text-anchor="start" x="536.5" y="-111.8" font-family="arial" font-weight="bold" font-size="14.00">Server Variable Object</text>
<polygon fill="#6ca437" stroke="transparent" points="533.5,-83 533.5,-104 696.5,-104 696.5,-83 533.5,-83"/>
<polygon fill="none" stroke="black" points="533.5,-83 533.5,-104 696.5,-104 696.5,-83 533.5,-83"/>
<text text-anchor="start" x="598" y="-89.8" font-family="monospace" font-size="14.00">enum</text>
<polygon fill="#6ca437" stroke="transparent" points="533.5,-62 533.5,-83 696.5,-83 696.5,-62 533.5,-62"/>
<polygon fill="none" stroke="black" points="533.5,-62 533.5,-83 696.5,-83 696.5,-62 533.5,-62"/>
<text text-anchor="start" x="586" y="-68.8" font-family="monospace" font-size="14.00">default</text>
<polygon fill="#6ca437" stroke="transparent" points="533.5,-41 533.5,-62 696.5,-62 696.5,-41 533.5,-41"/>
<polygon fill="none" stroke="black" points="533.5,-41 533.5,-62 696.5,-62 696.5,-41 533.5,-41"/>
<text text-anchor="start" x="569.5" y="-47.8" font-family="monospace" font-size="14.00">description</text>
<polygon fill="#6ca437" stroke="transparent" points="533.5,-20 533.5,-41 696.5,-41 696.5,-20 533.5,-20"/>
<polygon fill="none" stroke="black" points="533.5,-20 533.5,-41 696.5,-41 696.5,-20 533.5,-20"/>
<text text-anchor="start" x="610.5" y="-26.8" font-family="monospace" font-size="14.00">…</text>
</a>
</g>
</g>
<!-- variablesMap&#45;&gt;serverVariableObject -->
<g id="edge13" class="edge">
<title>variablesMap:var1&#45;&gt;serverVariableObject:header</title>
<path fill="none" stroke="black" d="M474,-115C496.14,-115 504.14,-115 522.08,-115"/>
<polygon fill="black" stroke="black" points="522.5,-118.5 532.5,-115 522.5,-111.5 522.5,-118.5"/>
</g>
<!-- variablesMap&#45;&gt;serverVariableObject -->
<g id="edge14" class="edge">
<title>variablesMap:var2&#45;&gt;serverVariableObject:header</title>
<path fill="none" stroke="black" d="M474,-93C497.98,-93 503.45,-109.4 522.37,-113.88"/>
<polygon fill="black" stroke="black" points="522.18,-117.38 532.5,-115 522.95,-110.42 522.18,-117.38"/>
</g>
<!-- variablesMap&#45;&gt;serverVariableObject -->
<g id="edge15" class="edge">
<title>variablesMap:var3&#45;&gt;serverVariableObject:header</title>
<path fill="none" stroke="black" d="M474,-72C502.49,-72 501.12,-105.51 522.61,-113.37"/>
<polygon fill="black" stroke="black" points="522.06,-116.82 532.5,-115 523.2,-109.92 522.06,-116.82"/>
</g>
</g>
</svg>
