<?xml version="1.0" encoding="UTF-8" standalone="no"?>
<!DOCTYPE svg PUBLIC "-//W3C//DTD SVG 1.1//EN"
 "http://www.w3.org/Graphics/SVG/1.1/DTD/svg11.dtd">
<!-- Generated by graphviz version 9.0.0 (20230911.1827)
 -->
<!-- Title: componentsObject Pages: 1 -->
<svg width="300pt" height="290pt"
 viewBox="0.00 0.00 300.25 290.25" xmlns="http://www.w3.org/2000/svg" xmlns:xlink="http://www.w3.org/1999/xlink">
<g id="graph0" class="graph" transform="scale(1 1) rotate(0) translate(4 286.25)">
<title>componentsObject</title>
<polygon fill="white" stroke="none" points="-4,4 -4,-286.25 296.25,-286.25 296.25,4 -4,4"/>
<!-- openapiObject -->
<g id="node1" class="node">
<title>openapiObject</title>
<g id="a_node1"><a xlink:href="https://spec.openapis.org/oas/v3.1.0#oasObject" xlink:title="Click to jump to the specification of this object" target="_blank">
<polygon fill="#94d60a" stroke="none" points="8,-256.5 8,-278.25 118.25,-278.25 118.25,-256.5 8,-256.5"/>
<polygon fill="none" stroke="black" points="8,-256.5 8,-278.25 118.25,-278.25 118.25,-256.5 8,-256.5"/>
<text text-anchor="start" x="11" y="-262.95" font-family="arial" font-weight="bold" font-size="14.00">OpenAPI Object</text>
<polygon fill="#6ca437" stroke="none" points="8,-235.5 8,-256.5 118.25,-256.5 118.25,-235.5 8,-235.5"/>
<polygon fill="none" stroke="black" points="8,-235.5 8,-256.5 118.25,-256.5 118.25,-235.5 8,-235.5"/>
<text text-anchor="start" x="34.25" y="-240.2" font-family="monospace" font-size="14.00">openapi</text>
<polygon fill="#6ca437" stroke="none" points="8,-214.5 8,-235.5 118.25,-235.5 118.25,-214.5 8,-214.5"/>
<polygon fill="none" stroke="black" points="8,-214.5 8,-235.5 118.25,-235.5 118.25,-214.5 8,-214.5"/>
<text text-anchor="start" x="46.62" y="-219.2" font-family="monospace" font-size="14.00">info</text>
<polygon fill="#6ca437" stroke="none" points="8,-193.5 8,-214.5 118.25,-214.5 118.25,-193.5 8,-193.5"/>
<polygon fill="none" stroke="black" points="8,-193.5 8,-214.5 118.25,-214.5 118.25,-193.5 8,-193.5"/>
<text text-anchor="start" x="21.88" y="-198.2" font-family="monospace" font-size="14.00">components</text>
<polygon fill="#6ca437" stroke="none" points="8,-172.5 8,-193.5 118.25,-193.5 118.25,-172.5 8,-172.5"/>
<polygon fill="none" stroke="black" points="8,-172.5 8,-193.5 118.25,-193.5 118.25,-172.5 8,-172.5"/>
<text text-anchor="start" x="30.12" y="-177.2" font-family="monospace" font-size="14.00">security</text>
<polygon fill="#6ca437" stroke="none" points="8,-151.5 8,-172.5 118.25,-172.5 118.25,-151.5 8,-151.5"/>
<polygon fill="none" stroke="black" points="8,-151.5 8,-172.5 118.25,-172.5 118.25,-151.5 8,-151.5"/>
<text text-anchor="start" x="42.5" y="-156.2" font-family="monospace" font-size="14.00">paths</text>
<polygon fill="#6ca437" stroke="none" points="8,-130.5 8,-151.5 118.25,-151.5 118.25,-130.5 8,-130.5"/>
<polygon fill="none" stroke="black" points="8,-130.5 8,-151.5 118.25,-151.5 118.25,-130.5 8,-130.5"/>
<text text-anchor="start" x="30.12" y="-135.2" font-family="monospace" font-size="14.00">webhooks</text>
<polygon fill="#6ca437" stroke="none" points="8,-109.5 8,-130.5 118.25,-130.5 118.25,-109.5 8,-109.5"/>
<polygon fill="none" stroke="black" points="8,-109.5 8,-130.5 118.25,-130.5 118.25,-109.5 8,-109.5"/>
<text text-anchor="start" x="59" y="-114.2" font-family="monospace" font-size="14.00">…</text>
</a>
</g>
</g>
<!-- pathItemObject -->
<g id="node2" class="node">
<title>pathItemObject</title>
<g id="a_node2"><a xlink:href="https://spec.openapis.org/oas/v3.1.0#pathItemObject" xlink:title="Click to jump to the specification of this object" target="_blank">
<polygon fill="#94d60a" stroke="none" points="170.25,-130 170.25,-151.75 284.25,-151.75 284.25,-130 170.25,-130"/>
<polygon fill="none" stroke="black" points="170.25,-130 170.25,-151.75 284.25,-151.75 284.25,-130 170.25,-130"/>
<text text-anchor="start" x="173.25" y="-136.45" font-family="arial" font-weight="bold" font-size="14.00">Path Item Object</text>
<polygon fill="#6ca437" stroke="none" points="170.25,-109 170.25,-130 284.25,-130 284.25,-109 170.25,-109"/>
<polygon fill="none" stroke="black" points="170.25,-109 170.25,-130 284.25,-130 284.25,-109 170.25,-109"/>
<text text-anchor="start" x="202.5" y="-113.7" font-family="monospace" font-size="14.00">delete</text>
<polygon fill="#6ca437" stroke="none" points="170.25,-88 170.25,-109 284.25,-109 284.25,-88 170.25,-88"/>
<polygon fill="none" stroke="black" points="170.25,-88 170.25,-109 284.25,-109 284.25,-88 170.25,-88"/>
<text text-anchor="start" x="214.88" y="-92.7" font-family="monospace" font-size="14.00">get</text>
<polygon fill="#6ca437" stroke="none" points="170.25,-67 170.25,-88 284.25,-88 284.25,-67 170.25,-67"/>
<polygon fill="none" stroke="black" points="170.25,-67 170.25,-88 284.25,-88 284.25,-67 170.25,-67"/>
<text text-anchor="start" x="206.62" y="-71.7" font-family="monospace" font-size="14.00">patch</text>
<polygon fill="#6ca437" stroke="none" points="170.25,-46 170.25,-67 284.25,-67 284.25,-46 170.25,-46"/>
<polygon fill="none" stroke="black" points="170.25,-46 170.25,-67 284.25,-67 284.25,-46 170.25,-46"/>
<text text-anchor="start" x="210.75" y="-50.7" font-family="monospace" font-size="14.00">post</text>
<polygon fill="#6ca437" stroke="none" points="170.25,-25 170.25,-46 284.25,-46 284.25,-25 170.25,-25"/>
<polygon fill="none" stroke="black" points="170.25,-25 170.25,-46 284.25,-46 284.25,-25 170.25,-25"/>
<text text-anchor="start" x="214.88" y="-29.7" font-family="monospace" font-size="14.00">put</text>
<polygon fill="#6ca437" stroke="none" points="170.25,-4 170.25,-25 284.25,-25 284.25,-4 170.25,-4"/>
<polygon fill="none" stroke="black" points="170.25,-4 170.25,-25 284.25,-25 284.25,-4 170.25,-4"/>
<text text-anchor="start" x="223.12" y="-8.7" font-family="monospace" font-size="14.00">…</text>
</a>
</g>
</g>
<!-- openapiObject&#45;&gt;pathItemObject -->
<g id="edge1" class="edge">
<title>openapiObject:webhooks&#45;&gt;pathItemObject:header</title>
<path fill="none" stroke="black" d="M119.12,-140.88C137.05,-140.88 144.16,-140.88 157.86,-140.88"/>
<polygon fill="black" stroke="black" points="157.74,-144.38 167.74,-140.88 157.74,-137.38 157.74,-144.38"/>
</g>
</g>
</svg>
